<?xml version="1.0" ?><svg enable-background="new 0 0 64 64" id="FO_00000068645308647629825500000001391242282340690576_" version="1.1" viewBox="0 0 64 64" xml:space="preserve" xmlns="http://www.w3.org/2000/svg" xmlns:xlink="http://www.w3.org/1999/xlink"><g><g><path d="M15,23L1,17v-6h50l4,4h0c2.6,0,5,1,6.8,2.8L63,19l-1.2,1.2C60,22,57.6,23,55,23H15z" fill="#4D4D4D"/><path d="M55,15c2.6,0,5,1,6.8,2.8L63,19l-1.2,1.2C60,22,57.6,23,55,23V15z" fill="#D92B3A"/><path d="M11,11H3V1h4L11,11z M41,17L41,17c0-1.1-0.9-2-2-2H23v0c0,2.2,1.8,4,4,4h12C40.1,19,41,18.1,41,17z" fill="#666666"/><path d="M55,15h-6c-1.1,0-2-0.9-2-2v-2h4L55,15z" fill="#8BA9FF"/><rect fill="#666666" height="4" width="9" x="27" y="19"/><g><path d="M44,29L44,29c-2-1.3-4.3-2-6.6-2H29v4h8.4C39.7,31,42,30.3,44,29L44,29z" fill="#E6E6E6"/><path d="M40,37L40,37c-2-1.3-4.3-2-6.6-2H25v4h8.4C35.7,39,38,38.3,40,37L40,37z" fill="#E6E6E6"/><path d="M44,45L44,45c-2-1.3-4.3-2-6.6-2H29v4h8.4C39.7,47,42,46.3,44,45L44,45z" fill="#E6E6E6"/><path d="M40,53L40,53c-2-1.3-4.3-2-6.6-2H25v4h8.4C35.7,55,38,54.3,40,53L40,53z" fill="#E6E6E6"/><path d="M44,61L44,61c-2-1.3-4.3-2-6.6-2H29v4h8.4C39.7,63,42,62.3,44,61L44,61z" fill="#E6E6E6"/></g><path d="M33,31h-4v-4h4V31z M29,35h-4v4h4V35z M33,43h-4v4h4V43z M29,51h-4v4h4V51z M33,59h-4v4h4V59z" fill="#D92B3A"/></g><g><path d="M63.7,18.3l-1.2-1.2c-1.9-1.9-4.4-3-7.1-3.1l-3.7-3.7C51.5,10.1,51.3,10,51,10H11.7L7.9,0.6    C7.8,0.2,7.4,0,7,0H3C2.4,0,2,0.4,2,1v9H1c-0.6,0-1,0.4-1,1v6c0,0.4,0.2,0.8,0.6,0.9l14,6C14.7,24,14.9,24,15,24h40    c2.8,0,5.5-1.1,7.5-3.1l1.2-1.2C64.1,19.3,64.1,18.7,63.7,18.3z M52.6,14H49c-0.6,0-1-0.4-1-1v-1h2.6L52.6,14z M4,2h2.3l3.2,8H4V2    z M2,16.3V12h44v1c0,1.7,1.3,3,3,3h5v6H37v-2h2c1.7,0,3-1.3,3-3s-1.3-3-3-3H23c-0.6,0-1,0.4-1,1c0,2.4,1.7,4.4,4,4.9V22H15.2    L2,16.3z M24.2,16H39c0.6,0,1,0.4,1,1s-0.4,1-1,1H27C25.7,18,24.6,17.2,24.2,16z M28,22v-2h7v2H28z M61.1,19.5    c-1.4,1.4-3.2,2.3-5.1,2.5v-5.9c1.9,0.2,3.7,1.1,5.1,2.5l0.5,0.5L61.1,19.5z" fill="#333333"/><path d="M44.6,28.2C42.4,26.8,40,26,37.4,26H29c-0.6,0-1,0.4-1,1v4c0,0.6,0.4,1,1,1h8.4c2.6,0,5-0.8,7.2-2.2    c0.3-0.2,0.4-0.5,0.4-0.8S44.8,28.4,44.6,28.2z M30,28h2v2h-2V28z M37.4,30H34v-2h3.4c1.6,0,3.1,0.3,4.6,1    C40.5,29.7,39,30,37.4,30z" fill="#333333"/><path d="M24,39c0,0.6,0.4,1,1,1h8.4c2.6,0,5-0.8,7.2-2.2c0.3-0.2,0.4-0.5,0.4-0.8s-0.2-0.6-0.4-0.8    C38.4,34.8,36,34,33.4,34H25c-0.6,0-1,0.4-1,1V39z M38,37c-1.4,0.7-3,1-4.6,1H30v-2h3.4C35,36,36.5,36.3,38,37z M26,36h2v2h-2V36z    " fill="#333333"/><path d="M44.6,44.2C42.4,42.8,40,42,37.4,42H29c-0.6,0-1,0.4-1,1v4c0,0.6,0.4,1,1,1h8.4c2.6,0,5-0.8,7.2-2.2    c0.3-0.2,0.4-0.5,0.4-0.8S44.8,44.4,44.6,44.2z M30,44h2v2h-2V44z M37.4,46H34v-2h3.4c1.6,0,3.1,0.3,4.6,1    C40.5,45.7,39,46,37.4,46z" fill="#333333"/><path d="M33.4,56c2.6,0,5-0.8,7.2-2.2c0.3-0.2,0.4-0.5,0.4-0.8s-0.2-0.6-0.4-0.8C38.4,50.8,36,50,33.4,50H25    c-0.6,0-1,0.4-1,1v4c0,0.6,0.4,1,1,1H33.4z M38,53c-1.4,0.7-3,1-4.6,1H30v-2h3.4C35,52,36.5,52.3,38,53z M26,52h2v2h-2V52z" fill="#333333"/><path d="M44.6,60.2C42.4,58.8,40,58,37.4,58H29c-0.6,0-1,0.4-1,1v4c0,0.6,0.4,1,1,1h8.4c2.6,0,5-0.8,7.2-2.2    c0.3-0.2,0.4-0.5,0.4-0.8S44.8,60.4,44.6,60.2z M30,60h2v2h-2V60z M37.4,62H34v-2h3.4c1.6,0,3.1,0.3,4.6,1    C40.5,61.7,39,62,37.4,62z" fill="#333333"/><path d="M13,14H5c-0.6,0-1,0.4-1,1s0.4,1,1,1h8c0.6,0,1-0.4,1-1S13.6,14,13,14z" fill="#333333"/><path d="M25,32c0.6,0,1-0.4,1-1v-4c0-0.6-0.4-1-1-1s-1,0.4-1,1v4C24,31.6,24.4,32,25,32z" fill="#333333"/><path d="M21,28c-0.6,0-1,0.4-1,1v6c0,0.6,0.4,1,1,1s1-0.4,1-1v-6C22,28.4,21.6,28,21,28z" fill="#333333"/><path d="M17,26c-0.6,0-1,0.4-1,1v4c0,0.6,0.4,1,1,1s1-0.4,1-1v-4C18,26.4,17.6,26,17,26z" fill="#333333"/><circle cx="21" cy="39" fill="#333333" r="1"/><path d="M52,26c-0.6,0-1,0.4-1,1v10c0,0.6,0.4,1,1,1s1-0.4,1-1V27C53,26.4,52.6,26,52,26z" fill="#333333"/><path d="M48,26c-0.6,0-1,0.4-1,1v14c0,0.6,0.4,1,1,1s1-0.4,1-1V27C49,26.4,48.6,26,48,26z" fill="#333333"/><path d="M44,32c-0.6,0-1,0.4-1,1v4c0,0.6,0.4,1,1,1s1-0.4,1-1v-4C45,32.4,44.6,32,44,32z" fill="#333333"/><circle cx="48" cy="45" fill="#333333" r="1"/></g></g></svg>