<?xml version="1.0" ?><!DOCTYPE svg  PUBLIC '-//W3C//DTD SVG 1.1//EN'  'http://www.w3.org/Graphics/SVG/1.1/DTD/svg11.dtd'><svg height="512px" style="shape-rendering:geometricPrecision; text-rendering:geometricPrecision; image-rendering:optimizeQuality; fill-rule:evenodd; clip-rule:evenodd" version="1.1" viewBox="0 0 117.01 117.01" width="512px" xml:space="preserve" xmlns="http://www.w3.org/2000/svg" xmlns:xlink="http://www.w3.org/1999/xlink" xmlns:xodm="http://www.corel.com/coreldraw/odm/2003"><defs><style type="text/css">
   <![CDATA[
    .fil0 {fill:none}
    .fil2 {fill:black;fill-rule:nonzero}
    .fil1 {fill:#FF9900;fill-rule:nonzero}
    .fil3 {fill:white;fill-rule:nonzero}
   ]]>
  </style></defs><g id="Layer_x0020_1"><g id="_2358361161568"><rect class="fil0" height="117.01" width="117.01"/><path class="fil1" d="M40.031 37.169c-0.334,-0.192 -0.766,-0.252 -1.138,-0.149 -0.218,0.06 -0.448,0.19 -0.629,0.359 -0.597,0.321 -0.976,0.983 -0.961,1.668 0.01,0.466 0.201,0.929 0.534,1.258 0.35,0.345 0.823,0.512 1.307,0.523 0.847,0.018 1.647,-0.618 1.847,-1.431 0.213,-0.863 -0.192,-1.787 -0.96,-2.228zm43.407 17.401c0.007,0.189 -0.033,0.366 -0.119,0.53 -0.055,0.171 -0.151,0.319 -0.285,0.444 -0.125,0.134 -0.273,0.229 -0.443,0.285 -0.09,0.047 -0.184,0.079 -0.281,0.098 -0.029,0.01 -0.057,0.02 -0.086,0.026 -0.064,0.012 -0.27,0.051 -0.399,0.05 -0.067,-0.007 -0.133,-0.016 -0.2,-0.027 -0.068,-0.005 -0.135,-0.014 -0.201,-0.028 -0.152,-0.041 -0.303,-0.105 -0.437,-0.189 -0.16,-0.087 -0.289,-0.205 -0.386,-0.355 -0.086,-0.086 -0.145,-0.187 -0.177,-0.304 -0.086,-0.164 -0.126,-0.341 -0.119,-0.53l0.049 -0.367c0.104,-0.29 0.219,-0.544 0.45,-0.758 0.079,-0.074 0.165,-0.138 0.252,-0.201 0.01,-0.009 0.02,-0.017 0.03,-0.026 0.172,-0.171 0.374,-0.289 0.608,-0.354 0.122,-0.016 0.244,-0.033 0.366,-0.049 0.367,-0.017 0.712,0.162 0.974,0.403 0.134,0.125 0.23,0.273 0.285,0.443 0.086,0.165 0.126,0.342 0.119,0.531 0.003,0.082 -0.005,0.161 -0.019,0.239l0.019 0.139zm-2.385 15.283c-1.775,0 -1.772,-2.755 0,-2.755 1.776,0 1.773,2.755 0,2.755zm9.652 -20.791c-0.187,-1.634 -0.383,-3.267 -0.585,-4.899 -0.036,-0.288 -0.222,-0.537 -0.537,-0.537 -0.069,0 -0.142,0.018 -0.21,0.049 -0.034,0.003 -0.067,0.007 -0.103,0.017 -5.982,1.608 -11.852,3.622 -17.56,6.029 -1.556,0.655 -3.115,1.514 -4.799,1.779 -0.262,0.042 -0.415,0.344 -0.386,0.592 -0.008,0.062 -0.008,0.13 0.009,0.202 0.398,1.751 1.387,3.296 2.281,4.829 0.972,1.665 1.952,3.326 2.941,4.981 1.956,3.275 3.939,6.534 5.972,9.763 1.062,1.687 2.183,3.356 3.596,4.775 0.017,0.018 0.036,0.03 0.054,0.045 0.001,0.072 -0.001,0.146 0.001,0.216 0.015,0.69 1.089,0.693 1.073,0 -0.02,-0.888 0.068,-1.989 0.549,-2.764 0.416,-0.67 1.349,-0.622 2.038,-0.605 0.281,0.006 0.55,-0.252 0.537,-0.537 -0.043,-0.944 -0.036,-1.956 0.469,-2.789 0.199,-0.33 0.47,-0.613 0.81,-0.798 0.365,-0.199 0.799,-0.178 1.164,-0.378 0.703,-0.385 0.699,-1.313 1.412,-1.672 0.651,-0.328 1.466,-0.273 2.17,-0.226 0.095,0.007 0.176,-0.01 0.245,-0.04 0.283,0.02 0.568,-0.148 0.54,-0.512 -0.456,-5.849 -1.016,-11.691 -1.681,-17.52zm-48.258 5.754c-0.033,0.129 -0.075,0.25 -0.15,0.37 -0.149,0.241 -0.311,0.404 -0.546,0.558 -0.133,0.087 -0.285,0.151 -0.438,0.188 -0.134,0.033 -0.288,0.05 -0.425,0.059 -0.028,0.002 -0.054,0.002 -0.082,0 -0.162,-0.01 -0.358,-0.026 -0.519,-0.089 -0.132,-0.051 -0.275,-0.098 -0.396,-0.174 -0.122,-0.076 -0.232,-0.171 -0.343,-0.262 -0.17,-0.172 -0.288,-0.375 -0.354,-0.608 -0.065,-0.244 -0.065,-0.488 0,-0.732 0.105,-0.275 0.196,-0.505 0.421,-0.707 0.107,-0.096 0.167,-0.139 0.226,-0.176 0.111,-0.09 0.236,-0.162 0.369,-0.219 0.104,-0.07 0.216,-0.128 0.344,-0.159 0.183,-0.057 0.366,-0.065 0.549,-0.024 0.184,0.008 0.354,0.063 0.512,0.163 0.129,0.08 0.251,0.178 0.366,0.276 0.025,0.021 0.046,0.043 0.067,0.067 0.058,0.066 0.179,0.218 0.226,0.293 0.007,0.012 0.013,0.023 0.02,0.035 0.042,0.079 0.12,0.259 0.144,0.343 0.021,0.07 0.021,0.126 0.032,0.21 0.033,0.246 0.051,0.299 -0.023,0.588zm-7.393 16.912c-1.775,0 -1.773,-2.755 0,-2.755 1.776,0 1.773,2.755 0,2.755zm-2.681 -15.158c-0.113,0.1 -0.231,0.205 -0.365,0.276 -0.107,0.056 -0.24,0.109 -0.354,0.15 -0.016,0.006 -0.032,0.012 -0.048,0.017 -0.263,0.073 -0.608,0.079 -0.868,-0.008 -0.261,-0.087 -0.448,-0.182 -0.646,-0.379 -0.096,-0.096 -0.176,-0.207 -0.245,-0.323 -0.205,-0.35 -0.252,-0.803 -0.132,-1.191 0.096,-0.312 0.26,-0.565 0.488,-0.798 0.171,-0.172 0.374,-0.29 0.608,-0.355l0.103 -0.014c0.081,-0.021 0.165,-0.032 0.252,-0.034l0.011 -0.001c0.009,-0.001 0.018,0 0.027,0 0.007,0 0.015,0 0.022,0 0.182,-0.004 0.363,0.006 0.541,0.058 0.63,0.184 1.135,0.8 1.135,1.469 0,0.407 -0.219,0.86 -0.529,1.133zm18.062 -5.545c-1.122,-0.921 -2.488,-1.348 -3.85,-1.78 -1.522,-0.483 -3.041,-0.977 -4.556,-1.483 -3.03,-1.012 -6.044,-2.07 -9.041,-3.173 -1.704,-0.627 -3.403,-1.27 -5.096,-1.926 -0.222,-0.086 -0.475,0.049 -0.598,0.243 -0.118,0.067 -0.21,0.173 -0.231,0.309 -1.174,7.867 -1.947,15.793 -2.296,23.74 -0.098,2.224 -0.279,4.49 0.022,6.705 0.052,0.38 0.664,0.538 0.897,0.236 0.631,-0.816 1.92,-0.982 2.681,-0.241 0.322,0.314 0.935,0.097 0.917,-0.379 -0.038,-0.991 1.3,-1 1.972,-0.909 0.467,0.063 0.982,0.128 1.411,0.331 0.321,0.153 0.712,0.486 0.638,0.888 -0.052,0.284 0.075,0.58 0.375,0.661 0.721,0.193 1.314,0.722 1.555,1.435 0.152,0.451 0.716,0.514 0.98,0.128 2.135,-3.119 4.316,-6.211 6.384,-9.375 1.936,-2.96 3.694,-6.037 5.264,-9.207 0.877,-1.77 1.692,-3.57 2.453,-5.393 0.289,-0.163 0.443,-0.544 0.119,-0.81zm31.781 -20.29c-1.553,0 -1.556,2.415 0,2.415 1.554,0 1.557,-2.415 0,-2.415zm-11.121 2.061c-0.049,-0.72 -0.348,-1.372 -0.879,-1.832 -0.154,-0.56 -0.608,-1.017 -1.366,-1 -1.422,0.032 -2.719,1.043 -2.752,2.547 -0.016,0.736 0.324,1.183 0.628,1.799 0.157,0.317 0.171,0.136 0.108,0.557 -0.077,0.511 -0.125,1.029 -0.187,1.542 -0.097,0.798 0.748,1.468 1.476,1.476 0.877,0.009 1.38,-0.688 1.476,-1.476 0.048,-0.404 0.148,-0.868 0.21,-1.332 0.159,-0.072 0.313,-0.166 0.461,-0.282 0.573,-0.447 0.874,-1.288 0.825,-1.999zm10.395 4.074c-0.052,-0.383 -0.203,-0.734 -0.479,-1.012 -0.161,-0.162 -0.33,-0.26 -0.532,-0.347 -0.189,-0.204 -0.442,-0.373 -0.696,-0.431 -0.378,-0.086 -0.802,-0.068 -1.137,0.149 -0.318,0.204 -0.588,0.505 -0.678,0.882 -0.146,0.602 -0.135,1.25 0.199,1.793 0.425,0.691 1.287,1.068 2.08,0.855 0.839,-0.225 1.356,-1.043 1.243,-1.889zm-8.952 -15.281c-0.081,-0.252 -0.211,-0.452 -0.381,-0.627 -0.05,-0.305 -0.198,-0.603 -0.412,-0.817 -0.256,-0.256 -0.676,-0.449 -1.043,-0.432 -0.382,0.017 -0.778,0.142 -1.044,0.432 -0.265,0.289 -0.431,0.643 -0.432,1.044 -0.001,0.429 0.11,0.815 0.307,1.194 0.193,0.371 0.5,0.639 0.837,0.873 0.3,0.208 0.797,0.242 1.137,0.148 0.343,-0.094 0.714,-0.358 0.882,-0.678 0.182,-0.342 0.272,-0.757 0.149,-1.137zm-4.927 -15.405c-1.9,0 -1.903,2.951 0,2.951 1.899,0 1.902,-2.951 0,-2.951zm-8.423 -5.556c-1.9,0 -1.903,2.952 0,2.952 1.899,0 1.902,-2.952 0,-2.952zm-12.635 2.419c-1.899,0 -1.902,2.952 0,2.952 1.9,0 1.903,-2.952 0,-2.952zm5.325 25.233c-0.233,-0.063 -0.45,-0.069 -0.651,-0.03 -0.161,-0.027 -0.333,-0.04 -0.523,-0.028 -0.743,0.047 -1.397,0.459 -1.846,1.038 -0.066,0.086 -0.123,0.174 -0.178,0.263 -0.254,-0.021 -0.527,0.027 -0.806,0.169 -1.934,0.982 -2.722,4.472 -0.017,5.008 1.127,0.223 2.206,-0.406 2.724,-1.4 0.21,-0.403 0.326,-0.839 0.402,-1.284 0.033,-0.195 0.091,-0.403 0.118,-0.603 0.427,0.07 0.866,-0.045 1.24,-0.395 0.29,-0.271 0.419,-0.562 0.567,-0.922 0.305,-0.737 -0.329,-1.623 -1.03,-1.816zm-7.289 -7.829c-0.064,-0.113 -0.14,-0.217 -0.23,-0.299 -0.281,-0.258 -0.651,-0.45 -1.044,-0.432 -0.13,0.017 -0.261,0.035 -0.392,0.053 -0.25,0.07 -0.467,0.196 -0.651,0.379 -0.525,0.437 -0.798,1.272 -0.6,1.931 0.217,0.723 0.782,1.241 1.532,1.342 0.823,0.111 1.667,-0.399 1.875,-1.228 0.158,-0.626 -0.013,-1.318 -0.49,-1.746zm-6.548 1.503c-1.9,0 -1.903,2.952 0,2.952 1.899,0 1.902,-2.952 0,-2.952z"/><g><path class="fil2" d="M36.348 70.872c0.012,-0.014 0.024,-0.026 0.037,-0.037 0.002,-0.002 0.003,-0.003 0.004,-0.005 -0.028,0.02 -0.041,0.036 -0.041,0.042z"/><path class="fil2" d="M36.49 70.103c-0.002,-0.005 -0.004,-0.009 -0.006,-0.014 -0.002,-0.007 -0.004,-0.014 -0.009,-0.024 0,0 0,0 0,0 0.01,0.062 0.021,0.065 0.015,0.038z"/><path class="fil2" d="M36.46 70.701c0.004,-0.01 0.01,-0.017 0.014,-0.026 0.003,-0.006 0.005,-0.009 0.008,-0.015 0,-0.001 0,-0.002 0,-0.002 -0.035,0.047 -0.034,0.057 -0.022,0.043z"/><path class="fil2" d="M35.217 70.78c0,0 0,0 0,0 0.008,0.005 0.017,0.01 0.026,0.019 -0.007,-0.008 -0.015,-0.014 -0.026,-0.019z"/><path class="fil2" d="M35.891 69.69l0 0c0.105,0.032 0.052,0.004 0,0z"/><path class="fil2" d="M36.528 70.49c0,-0.003 0.001,-0.005 0.001,-0.007 0,-0.019 0,-0.037 0.002,-0.055 -0.003,-0.014 -0.009,0 -0.003,0.062z"/><path class="fil2" d="M81.255 67.696c-0.002,0 -0.002,0.001 -0.004,0.002 -0.005,0.005 -0.01,0.01 -0.02,0.017 0.008,-0.003 0.017,-0.009 0.024,-0.019z"/><path class="fil2" d="M80.937 69.245c0.011,0.01 0.02,0.018 0.026,0.024 0.003,0.002 0.005,0.003 0.008,0.005 -0.003,-0.015 -0.03,-0.031 -0.034,-0.029z"/><path class="fil3" d="M30.091 45.312c-0.254,-0.069 -0.617,0.087 -0.66,0.375 -0.836,5.548 -1.494,11.122 -1.963,16.713 -0.133,1.583 -0.25,3.168 -0.353,4.754 -0.045,0.69 1.028,0.687 1.073,0 0.36,-5.529 0.9,-11.045 1.621,-16.538 0.204,-1.55 0.424,-3.098 0.657,-4.644 0.043,-0.286 -0.072,-0.576 -0.375,-0.66z"/><path class="fil3" d="M27.924 69.177c-0.093,-0.093 -0.245,-0.163 -0.379,-0.157 -0.139,0.007 -0.283,0.052 -0.38,0.157 -0.028,0.037 -0.056,0.073 -0.084,0.109 -0.048,0.084 -0.072,0.174 -0.073,0.271 -0.042,0.332 -0.085,0.665 -0.127,0.998 -0.016,0.126 0.071,0.294 0.157,0.379 0.093,0.093 0.246,0.163 0.379,0.157 0.139,-0.006 0.283,-0.052 0.38,-0.157 0.028,-0.036 0.056,-0.072 0.084,-0.108 0.048,-0.084 0.073,-0.175 0.073,-0.271 0.043,-0.333 0.085,-0.666 0.127,-0.998 0.017,-0.126 -0.071,-0.294 -0.157,-0.38z"/><path class="fil3" d="M41.091 50.964c-0.011,-0.261 -0.238,-0.574 -0.537,-0.536 -0.365,0.045 -0.697,0.137 -1.026,0.307 -0.284,0.145 -0.548,0.348 -0.768,0.578 -0.479,0.501 -0.767,1.136 -0.823,1.826 -0.022,0.28 0.264,0.549 0.537,0.536 0.31,-0.013 0.512,-0.236 0.537,-0.536 0.002,-0.03 0.009,-0.062 0.008,-0.092 0,0.007 0,0.01 0.001,0.016 0,-0.003 0,-0.007 0.001,-0.01 0.012,-0.065 0.027,-0.129 0.045,-0.194 0.016,-0.058 0.035,-0.116 0.056,-0.174 0.011,-0.028 0.023,-0.057 0.033,-0.085 -0.01,0.027 -0.016,0.044 -0.021,0.057 0.005,-0.014 0.012,-0.03 0.017,-0.041 0.054,-0.115 0.119,-0.226 0.191,-0.331 0.015,-0.022 0.03,-0.043 0.046,-0.065 0.003,-0.003 0.005,-0.007 0.008,-0.01 0.039,-0.047 0.08,-0.094 0.123,-0.138 0.042,-0.044 0.086,-0.087 0.132,-0.128 0.023,-0.021 0.046,-0.041 0.069,-0.061l0.007 -0.005c0.106,-0.065 0.204,-0.143 0.315,-0.202 0.054,-0.029 0.113,-0.049 0.165,-0.08 -0.005,0.004 -0.009,0.005 -0.014,0.008 0.029,-0.01 0.057,-0.02 0.086,-0.03 0.058,-0.019 0.117,-0.035 0.177,-0.049 0.034,-0.009 0.069,-0.016 0.104,-0.023 0.04,-0.007 0.168,-0.023 -0.006,-0.001 0.148,-0.019 0.27,-0.048 0.38,-0.157 0.093,-0.093 0.163,-0.246 0.157,-0.38z"/><path class="fil3" d="M39.02 53.063c-0.007,0.05 0.002,0.122 0,0z"/><path class="fil3" d="M39.134 52.657c-0.009,0.023 -0.013,0.035 0,0z"/><path class="fil3" d="M40.193 51.604c0,0 0,0.001 0,0.001 -0.042,0.015 -0.101,0.058 0,-0.001z"/><path class="fil3" d="M35.262 67.511c-0.091,-0.281 -0.369,-0.449 -0.66,-0.375 -0.399,0.102 -0.761,0.309 -1.068,0.58 -0.311,0.275 -0.53,0.625 -0.68,1.008 -0.047,0.121 -0.009,0.305 0.054,0.413 0.066,0.112 0.193,0.218 0.321,0.247 0.138,0.031 0.292,0.024 0.414,-0.054 0.036,-0.028 0.072,-0.056 0.108,-0.084 0.051,-0.052 0.086,-0.112 0.113,-0.177 0.057,-0.129 0.128,-0.249 0.21,-0.363 0.083,-0.1 0.175,-0.191 0.275,-0.274 0.099,-0.071 0.205,-0.133 0.315,-0.186 0.073,-0.028 0.147,-0.055 0.223,-0.075 0.272,-0.07 0.463,-0.388 0.375,-0.66z"/><path class="fil3" d="M78.352 65.484c-2.788,-4.237 -5.326,-8.637 -7.597,-13.172 -0.309,-0.618 -1.235,-0.075 -0.926,0.542 2.27,4.535 4.808,8.935 7.597,13.172 0.378,0.574 1.308,0.037 0.926,-0.542z"/><path class="fil3" d="M82.545 72.201c-0.127,-0.172 -0.253,-0.344 -0.379,-0.516 -0.034,-0.063 -0.08,-0.113 -0.138,-0.151 -0.052,-0.047 -0.113,-0.08 -0.183,-0.096 -0.071,-0.023 -0.142,-0.026 -0.214,-0.01 -0.071,0.004 -0.137,0.025 -0.199,0.064 -0.036,0.028 -0.073,0.056 -0.109,0.084 -0.066,0.067 -0.112,0.146 -0.138,0.237 -0.006,0.047 -0.013,0.095 -0.019,0.143 0,0.096 0.025,0.186 0.073,0.27 0.126,0.173 0.253,0.345 0.379,0.517 0.033,0.063 0.079,0.113 0.138,0.151 0.052,0.047 0.113,0.079 0.182,0.096 0.072,0.022 0.143,0.025 0.215,0.009 0.071,-0.003 0.137,-0.024 0.199,-0.064 0.036,-0.027 0.072,-0.056 0.109,-0.083 0.066,-0.067 0.112,-0.146 0.138,-0.237 0.006,-0.048 0.012,-0.095 0.019,-0.143 -0.001,-0.097 -0.025,-0.187 -0.073,-0.271z"/><path class="fil3" d="M81.284 64.811c-0.111,-0.101 -0.231,-0.141 -0.38,-0.157 -1.093,-0.112 -2.237,0.769 -2.395,1.86 -0.021,0.149 -0.025,0.278 0.054,0.414 0.065,0.111 0.193,0.217 0.321,0.246 0.137,0.031 0.292,0.025 0.413,-0.054 0.109,-0.07 0.228,-0.186 0.247,-0.321 0.012,-0.086 0.031,-0.171 0.058,-0.255 0.007,-0.023 0.015,-0.046 0.023,-0.068 0.004,-0.009 0.008,-0.017 0.01,-0.022 0.01,-0.019 0.02,-0.038 0.03,-0.057 0.02,-0.039 0.042,-0.076 0.066,-0.113 0.012,-0.018 0.024,-0.036 0.036,-0.054 0.003,-0.004 0.009,-0.012 0.015,-0.02 0.016,-0.019 0.032,-0.038 0.048,-0.056 0.03,-0.032 0.06,-0.063 0.092,-0.094 0.03,-0.028 0.061,-0.055 0.093,-0.082 0.007,-0.005 0.015,-0.011 0.023,-0.016 0.071,-0.05 0.147,-0.095 0.225,-0.134 0.01,-0.005 0.02,-0.01 0.03,-0.015 0.037,-0.005 0.089,-0.033 0.121,-0.043 0.066,-0.02 0.134,-0.032 0.203,-0.044 0.095,-0.007 0.191,-0.008 0.287,0.002 0.129,0.013 0.292,-0.07 0.38,-0.158 0.093,-0.093 0.163,-0.246 0.157,-0.379 -0.007,-0.139 -0.052,-0.283 -0.157,-0.38z"/><path class="fil3" d="M81.925 50.953c-0.083,-0.303 -0.373,-0.423 -0.66,-0.375 -0.981,0.166 -1.881,0.801 -2.377,1.662 -0.569,0.984 -0.577,2.175 -0.117,3.199 0.118,0.264 0.503,0.327 0.734,0.192 0.272,-0.159 0.312,-0.469 0.193,-0.734 -0.306,-0.682 -0.246,-1.52 0.147,-2.168 0.369,-0.607 0.985,-0.994 1.705,-1.116 0.286,-0.048 0.447,-0.401 0.375,-0.66z"/><path class="fil3" d="M89.822 50.847c-0.275,-1.541 -0.55,-3.081 -0.825,-4.622 -0.05,-0.281 -0.402,-0.452 -0.66,-0.375l-3.365 1.012c-0.66,0.199 -0.379,1.235 0.285,1.035 0.934,-0.281 1.868,-0.561 2.802,-0.842 0.243,1.359 0.485,2.718 0.728,4.076 0.051,0.286 0.399,0.447 0.66,0.376 0.301,-0.083 0.426,-0.374 0.375,-0.66z"/><path class="fil3" d="M90.126 53.366c-0.015,-0.169 -0.04,-0.338 -0.092,-0.5 -0.043,-0.132 -0.125,-0.249 -0.247,-0.32 -0.061,-0.04 -0.128,-0.061 -0.199,-0.064 -0.072,-0.016 -0.143,-0.013 -0.214,0.01 -0.13,0.041 -0.255,0.122 -0.321,0.246 -0.066,0.125 -0.099,0.276 -0.054,0.414 0.024,0.074 0.038,0.149 0.052,0.225 0.007,0.097 0.007,0.194 -0.002,0.291 -0.002,0.016 -0.003,0.032 -0.003,0.048 0,0 0,0.001 0,0.001 0,0 0,0 0,-0.001 0.001,0.029 0.001,0.057 0.008,0.086 0.003,0.071 0.024,0.138 0.064,0.199 0.033,0.063 0.079,0.113 0.138,0.151 0.052,0.047 0.113,0.08 0.182,0.096 0.138,0.031 0.292,0.025 0.414,-0.054 0.036,-0.028 0.072,-0.056 0.109,-0.084 0.066,-0.067 0.112,-0.146 0.138,-0.237 0.023,-0.171 0.043,-0.335 0.027,-0.507z"/></g><path class="fil2" d="M102.186 105.471c-0.055,-0.121 -0.107,-0.243 -0.161,-0.364 2.28,-0.29 4.561,-0.58 6.841,-0.87 0.099,-0.013 0.192,-0.044 0.274,-0.091 0.377,0.191 0.736,0.418 1.053,0.694 0.025,0.022 0.051,0.044 0.077,0.068 -2.326,-0.476 -6.184,0.172 -8.084,0.563zm-60.123 -50.983c-0.092,0.47 -0.452,0.744 -0.872,0.908 0.014,-0.006 0.028,-0.011 0.042,-0.016 -0.277,0.064 -0.575,0.059 -0.839,-0.045 -1.025,-0.406 -0.723,-1.725 0.248,-1.941 0.691,-0.153 1.579,0.275 1.421,1.094zm1.045 -0.616c-0.124,-0.524 -0.439,-0.948 -0.898,-1.23 -0.464,-0.285 -1.013,-0.402 -1.553,-0.336 -0.685,0.085 -1.461,0.378 -1.765,1.038 -0.238,0.518 -0.277,1.174 -0.108,1.719 0.271,0.872 1.134,1.402 2.019,1.425 0.919,0.025 1.781,-0.47 2.159,-1.322 0.176,-0.398 0.247,-0.867 0.146,-1.294zm-10.756 1.765c-0.142,0.457 -0.528,0.691 -0.964,0.809 0.014,-0.004 0.029,-0.008 0.043,-0.011 -0.282,0.034 -0.577,-0.003 -0.829,-0.135 -0.976,-0.513 -0.535,-1.793 0.454,-1.903 0.703,-0.079 1.541,0.442 1.296,1.24zm1.105 -0.502c-0.067,-0.534 -0.335,-0.989 -0.762,-1.319 -0.43,-0.332 -0.963,-0.508 -1.508,-0.499 -0.69,0.011 -1.493,0.219 -1.865,0.843 -0.293,0.49 -0.402,1.138 -0.292,1.697 0.176,0.897 0.978,1.516 1.855,1.633 0.912,0.123 1.822,-0.277 2.288,-1.084 0.218,-0.377 0.339,-0.835 0.284,-1.271zm2.325 15.348c-0.031,0.215 -0.15,0.413 -0.354,0.525 -0.265,0.146 -0.62,0.098 -0.843,-0.106 -0.021,-0.019 -0.058,-0.071 -0.089,-0.103 0.019,0.024 0.019,0.048 -0.016,-0.003 -0.401,-0.579 0.15,-1.242 0.796,-1.081 0.354,0.088 0.557,0.409 0.506,0.768zm0.6 -1.326c-0.309,-0.318 -0.741,-0.503 -1.182,-0.533 -0.502,-0.034 -1.044,0.119 -1.413,0.479 -0.423,0.415 -0.577,1.068 -0.478,1.641 0.121,0.698 0.762,1.276 1.45,1.392 0.421,0.071 0.834,0.015 1.21,-0.194 0.306,-0.17 0.565,-0.449 0.707,-0.769 0.3,-0.671 0.235,-1.474 -0.294,-2.016zm-0.967 6.287c-0.336,-0.792 -1.007,-1.428 -1.821,-1.707 -0.126,-1.38 -1.518,-2.325 -2.928,-1.995 -0.823,0.193 -1.577,0.812 -1.958,1.577 -0.427,-0.339 -0.951,-0.559 -1.503,-0.6 -0.627,-0.048 -1.236,0.161 -1.729,0.529 -0.032,-1.949 0.024,-3.9 0.119,-5.847 0.006,-0.118 0.012,-0.236 0.018,-0.353 0.242,-4.749 0.648,-9.489 1.205,-14.21 0.358,-3.029 0.789,-6.048 1.277,-9.059 7.307,2.371 14.514,5.041 21.592,8.025 -3.363,6.513 -7.09,12.841 -11.013,18.983 -1.019,1.596 -2.092,3.164 -3.259,4.657zm-9.891 -0.561c0.255,-0.672 0.945,-1.165 1.681,-1.091 0.566,0.057 1.024,0.426 1.274,0.909 0.038,0.228 0.112,0.455 0.238,0.675 0.319,0.562 1.074,0.157 0.981,-0.413 -0.036,-0.216 -0.1,-0.423 -0.188,-0.619 -0.004,-0.697 0.715,-1.365 1.344,-1.542 0.746,-0.209 1.829,0.285 1.69,1.205 -0.041,0.268 0.064,0.601 0.375,0.661 0.797,0.151 1.416,0.717 1.61,1.51 0.023,0.093 0.062,0.167 0.113,0.225 -0.365,0.439 -0.738,0.87 -1.122,1.292 -1.181,1.298 -2.316,2.726 -3.805,3.689 -2.046,1.324 -3.552,-0.152 -3.88,-2.325 -0.208,-1.382 -0.26,-2.781 -0.311,-4.176zm56.27 -6.098c-0.042,0.21 -0.176,0.401 -0.418,0.53 -0.225,0.119 -0.489,0.152 -0.743,0.13 -0.195,-0.04 -0.39,-0.124 -0.526,-0.274 -0.113,-0.126 -0.125,-0.412 -0.223,-0.503 -0.013,-0.011 -0.013,0.027 0.003,0.021 0.016,-0.006 0.016,-0.028 0.013,-0.045 -0.018,-0.121 0,-0.247 0.05,-0.358 -0.007,0.015 -0.013,0.03 -0.02,0.045 0.159,-0.352 0.414,-0.64 0.812,-0.705 0.264,-0.001 0.526,0.101 0.72,0.28 0.266,0.245 0.393,0.581 0.332,0.879zm1.088 -0.225c-0.081,-0.844 -0.63,-1.597 -1.431,-1.893 -1.782,-0.657 -3.375,1.622 -2.232,3.101 0.512,0.662 1.402,0.895 2.197,0.676 0.833,-0.229 1.553,-0.976 1.466,-1.884zm-1.943 -13.353c-0.265,-0.399 -0.201,-0.846 -0.017,-1.258l-0.019 0.04c0.152,-0.24 0.367,-0.446 0.629,-0.557 1.014,-0.431 1.726,0.72 1.186,1.556 -0.383,0.594 -1.317,0.913 -1.779,0.219zm-0.311 1.173c0.456,0.286 0.978,0.366 1.503,0.244 0.53,-0.123 1.003,-0.425 1.341,-0.852 0.428,-0.541 0.775,-1.295 0.527,-1.978 -0.194,-0.536 -0.627,-1.03 -1.13,-1.299 -0.806,-0.431 -1.793,-0.202 -2.439,0.403 -0.671,0.628 -0.937,1.587 -0.607,2.458 0.154,0.408 0.433,0.791 0.805,1.024zm-22.39 -53.446c-0.265,-0.399 -0.201,-0.846 -0.017,-1.258l-0.019 0.04c0.152,-0.24 0.367,-0.445 0.629,-0.557 1.014,-0.431 1.727,0.72 1.187,1.556 -0.384,0.594 -1.317,0.913 -1.78,0.219zm-0.311 1.173c0.456,0.286 0.979,0.366 1.504,0.244 0.529,-0.122 1.003,-0.424 1.34,-0.852 0.428,-0.541 0.775,-1.295 0.527,-1.978 -0.194,-0.537 -0.627,-1.03 -1.13,-1.299 -0.806,-0.431 -1.792,-0.201 -2.439,0.403 -0.671,0.629 -0.936,1.587 -0.607,2.458 0.154,0.408 0.433,0.792 0.805,1.024zm8.73 4.45c-0.265,-0.399 -0.201,-0.846 -0.017,-1.258 -0.006,0.013 -0.012,0.027 -0.019,0.04 0.152,-0.24 0.367,-0.445 0.629,-0.556 1.015,-0.432 1.727,0.719 1.187,1.555 -0.384,0.595 -1.317,0.914 -1.78,0.219zm-0.311 1.173c0.457,0.286 0.979,0.366 1.504,0.244 0.529,-0.122 1.003,-0.425 1.341,-0.852 0.428,-0.541 0.774,-1.295 0.526,-1.978 -0.194,-0.536 -0.627,-1.03 -1.13,-1.299 -0.806,-0.431 -1.792,-0.201 -2.439,0.404 -0.67,0.628 -0.936,1.586 -0.607,2.458 0.155,0.407 0.433,0.791 0.805,1.023zm-18.761 -4.932c-0.094,0.454 -0.454,0.72 -0.875,0.879 0.014,-0.005 0.028,-0.01 0.042,-0.015 -0.277,0.063 -0.574,0.06 -0.838,-0.04 -1.024,-0.389 -0.717,-1.664 0.255,-1.876 0.691,-0.15 1.577,0.26 1.416,1.052zm1.047 -0.599c-0.122,-0.506 -0.435,-0.914 -0.894,-1.185 -0.461,-0.273 -1.01,-0.385 -1.551,-0.318 -0.684,0.084 -1.461,0.37 -1.767,1.008 -0.241,0.502 -0.282,1.135 -0.115,1.66 0.268,0.842 1.129,1.351 2.013,1.37 0.918,0.02 1.782,-0.461 2.163,-1.285 0.178,-0.386 0.251,-0.838 0.151,-1.25zm32.684 28.309c-0.531,-0.782 0.31,-2.04 1.21,-1.402 0.387,0.274 0.573,0.926 0.506,1.377 -0.105,0.708 -0.874,0.641 -1.37,0.349 -0.145,-0.086 -0.259,-0.196 -0.346,-0.324zm0.255 1.188c0.369,0.142 0.834,0.24 1.223,0.131 0.481,-0.135 0.852,-0.513 1.014,-0.981 0.327,-0.945 -0.286,-2.267 -1.211,-2.626 -0.724,-0.281 -1.528,0.066 -1.978,0.657 -0.449,0.59 -0.419,1.459 -0.008,2.061 0.243,0.355 0.558,0.603 0.96,0.758zm-3.105 3.972c-0.693,-1.022 0.405,-2.665 1.581,-1.832 0.506,0.358 0.749,1.21 0.661,1.8 -0.137,0.924 -1.141,0.838 -1.789,0.455 -0.19,-0.112 -0.339,-0.256 -0.453,-0.423zm0.333 1.552c0.483,0.187 1.09,0.314 1.599,0.172 0.629,-0.176 1.113,-0.67 1.325,-1.283 0.427,-1.234 -0.374,-2.962 -1.582,-3.431 -0.947,-0.367 -1.998,0.087 -2.585,0.859 -0.587,0.772 -0.548,1.907 -0.01,2.693 0.316,0.463 0.729,0.787 1.253,0.99zm-11.288 -4.063c0.414,-0.326 1.04,-0.296 1.494,-0.075 1.018,0.497 0.585,1.886 -0.228,2.341 -0.282,0.157 -0.606,0.215 -0.921,0.132 -0.337,-0.088 -0.621,-0.331 -0.767,-0.646 -0.164,-0.351 -0.142,-0.923 0.032,-1.271 0.098,-0.198 0.231,-0.356 0.39,-0.481zm-0.511 3.191c0.968,0.563 2.153,0.327 2.917,-0.468 0.391,-0.407 0.729,-0.923 0.741,-1.494 0.074,-0.416 0.007,-0.832 -0.161,-1.207 0.54,-0.385 0.953,-0.934 1.113,-1.611 0.041,-0.175 0.065,-0.355 0.063,-0.535 -0.014,-1.578 -1.48,-3.263 -3.012,-3.518 -1.694,-0.282 -3.126,1.103 -3.252,2.75 -0.073,0.954 0.292,1.918 0.947,2.598 -0.719,1.104 -0.604,2.759 0.644,3.485zm2.861 -4.029c-0.091,-0.08 -0.187,-0.154 -0.288,-0.22 -0.731,-0.478 -1.72,-0.429 -2.455,0.018 -0.356,-0.369 -0.583,-0.868 -0.636,-1.396 -0.071,-0.702 0.276,-1.512 0.867,-1.924 0.82,-0.571 1.67,-0.026 2.322,0.541 0.399,0.348 0.694,0.815 0.834,1.326 0.196,0.707 -0.124,1.291 -0.644,1.655zm-0.159 -12.105c-0.693,-1.022 0.405,-2.665 1.581,-1.832 0.506,0.358 0.749,1.21 0.661,1.8 -0.137,0.924 -1.142,0.837 -1.79,0.455 -0.19,-0.112 -0.339,-0.256 -0.452,-0.423zm0.333 1.552c0.483,0.186 1.09,0.314 1.599,0.171 0.629,-0.176 1.113,-0.67 1.325,-1.282 0.427,-1.234 -0.374,-2.962 -1.583,-3.431 -0.946,-0.367 -1.997,0.087 -2.584,0.859 -0.587,0.771 -0.548,1.907 -0.011,2.693 0.317,0.463 0.73,0.787 1.254,0.99zm-31.192 -0.087c-0.143,0.934 -1.615,1.284 -1.841,0.205 -0.098,-0.465 0.209,-1.069 0.566,-1.354 0.558,-0.447 1.076,0.124 1.241,0.676 0.048,0.162 0.057,0.32 0.034,0.473zm0.62 -1.044c-0.173,-0.356 -0.448,-0.744 -0.807,-0.929 -0.445,-0.228 -0.974,-0.203 -1.411,0.031 -0.882,0.47 -1.332,1.856 -0.898,2.748 0.34,0.698 1.166,0.991 1.897,0.863 0.731,-0.127 1.3,-0.785 1.407,-1.506 0.064,-0.424 0.001,-0.821 -0.188,-1.207zm4.978 -0.801c-0.186,1.22 -2.109,1.678 -2.405,0.268 -0.127,-0.608 0.274,-1.396 0.74,-1.77 0.729,-0.584 1.406,0.163 1.621,0.884 0.063,0.211 0.075,0.418 0.044,0.618zm0.811 -1.365c-0.227,-0.464 -0.585,-0.971 -1.055,-1.213 -0.581,-0.298 -1.272,-0.265 -1.844,0.039 -1.152,0.615 -1.74,2.426 -1.173,3.592 0.444,0.912 1.523,1.295 2.479,1.128 0.955,-0.166 1.698,-1.026 1.839,-1.967 0.083,-0.555 0.001,-1.074 -0.246,-1.579zm5.513 10.656c-0.525,-0.043 -0.963,-0.49 -1.146,-0.961 -0.409,-1.057 0.853,-1.781 1.759,-1.561 0.314,0.076 0.59,0.254 0.765,0.529 0.187,0.294 0.23,0.665 0.123,0.996 -0.119,0.369 -0.524,0.773 -0.888,0.91 -0.206,0.078 -0.412,0.103 -0.613,0.087zm2.545 -1.992c-0.327,-1.071 -1.356,-1.704 -2.456,-1.641 -0.565,0.032 -1.163,0.181 -1.561,0.592 -0.336,0.254 -0.57,0.605 -0.702,0.994 -0.658,-0.085 -1.334,0.036 -1.912,0.424 -0.149,0.101 -0.288,0.216 -0.41,0.349 -1.063,1.168 -1.134,3.399 -0.184,4.628 1.051,1.359 3.042,1.317 4.254,0.196 0.702,-0.651 1.091,-1.605 1.073,-2.549 1.278,-0.32 2.319,-1.611 1.898,-2.993zm-4.838 1.008c0.013,0.121 0.033,0.24 0.062,0.357 0.21,0.848 0.969,1.484 1.812,1.657 0.01,0.512 -0.163,1.032 -0.483,1.456 -0.426,0.563 -1.231,0.921 -1.945,0.821 -0.989,-0.14 -1.242,-1.118 -1.333,-1.976 -0.057,-0.527 0.045,-1.07 0.289,-1.54 0.338,-0.651 0.969,-0.862 1.598,-0.775zm-8.115 8.983c-0.187,1.221 -2.11,1.678 -2.406,0.268 -0.127,-0.607 0.274,-1.396 0.74,-1.769 0.729,-0.584 1.407,0.162 1.622,0.883 0.063,0.212 0.074,0.418 0.044,0.618zm0.811 -1.364c-0.227,-0.465 -0.585,-0.971 -1.056,-1.213 -0.58,-0.299 -1.272,-0.266 -1.843,0.039 -1.153,0.614 -1.74,2.425 -1.173,3.591 0.444,0.913 1.523,1.295 2.478,1.129 0.956,-0.167 1.699,-1.026 1.84,-1.968 0.083,-0.555 0,-1.073 -0.246,-1.578zm23.568 -10.565c-0.488,-1.385 -0.888,-2.799 -1.196,-4.236 0.229,-0.829 0.452,-1.661 0.664,-2.495 0.076,0.373 0.153,0.746 0.23,1.119 0.228,1.112 0.555,2.249 0.652,3.381 0.066,0.773 -0.114,1.508 -0.35,2.231zm-1.202 3.47c-0.469,-1.078 -0.903,-2.171 -1.303,-3.277 0.244,-0.777 0.482,-1.555 0.712,-2.336 0.326,1.201 0.716,2.384 1.17,3.544 0.022,0.056 0.052,0.107 0.086,0.154 -0.221,0.639 -0.443,1.277 -0.665,1.915zm-1.177 3.347c-0.436,-1.019 -0.873,-2.039 -1.309,-3.058 0.222,-0.645 0.441,-1.29 0.654,-1.938 0.411,1.052 0.849,2.093 1.319,3.12 -0.219,0.626 -0.441,1.251 -0.664,1.876zm-1.313 3.614c-0.448,-1.052 -0.864,-2.118 -1.248,-3.195 0.249,-0.661 0.492,-1.325 0.73,-1.99 0.406,0.949 0.813,1.898 1.219,2.847 0.024,0.056 0.061,0.1 0.106,0.138 -0.266,0.734 -0.535,1.468 -0.807,2.2zm-1.204 3.137c-0.475,-1.001 -0.919,-2.016 -1.329,-3.046 0.238,-0.589 0.473,-1.18 0.704,-1.773 0.398,1.041 0.823,2.072 1.278,3.09 0.003,0.006 0.007,0.01 0.011,0.017 -0.218,0.572 -0.44,1.143 -0.664,1.712zm-1.33 3.269c-0.453,-0.994 -0.92,-1.98 -1.409,-2.956 0.28,-0.651 0.562,-1.301 0.834,-1.955 0.427,1.01 0.882,2.009 1.369,2.991 -0.259,0.643 -0.525,1.282 -0.794,1.92zm-1.328 3.031c-0.483,-0.967 -0.966,-1.934 -1.449,-2.9 0.271,-0.598 0.543,-1.195 0.808,-1.795 0.484,0.988 0.954,1.983 1.401,2.988 -0.249,0.571 -0.503,1.14 -0.76,1.707zm-1.441 2.921c-0.439,-0.929 -0.926,-1.835 -1.458,-2.714 0.295,-0.618 0.588,-1.237 0.877,-1.858 0.482,0.965 0.964,1.931 1.447,2.896 -0.272,0.567 -0.576,1.119 -0.866,1.676zm-1.382 2.979c-0.497,-0.933 -0.995,-1.865 -1.492,-2.797 0.288,-0.578 0.574,-1.158 0.856,-1.739 0.52,0.909 0.993,1.844 1.415,2.802 -0.26,0.578 -0.512,1.158 -0.779,1.734zm-1.526 3.059c-0.474,-0.98 -0.963,-1.953 -1.467,-2.917 0.305,-0.589 0.611,-1.176 0.91,-1.767 0.502,0.939 1.003,1.879 1.504,2.818 -0.31,0.625 -0.629,1.245 -0.947,1.866zm-1.589 3.05c-0.486,-0.992 -0.971,-1.984 -1.457,-2.976 0.327,-0.607 0.652,-1.216 0.973,-1.827 0.501,0.974 0.991,1.952 1.461,2.941 -0.324,0.622 -0.65,1.242 -0.977,1.862zm-1.459 2.741c-0.507,-0.981 -1.013,-1.963 -1.52,-2.945 0.299,-0.539 0.599,-1.078 0.895,-1.619 0.488,0.998 0.976,1.996 1.464,2.993 -0.278,0.525 -0.559,1.048 -0.839,1.571zm-1.636 3.037c-0.555,-1.018 -1.052,-2.067 -1.486,-3.142 0.328,-0.571 0.652,-1.144 0.974,-1.718 0.512,0.991 1.023,1.982 1.535,2.972 -0.339,0.631 -0.68,1.26 -1.023,1.888zm-0.866 1.572c-0.243,0.437 -0.491,0.873 -0.739,1.308 -0.488,-1.063 -1.004,-2.112 -1.547,-3.147 0.333,-0.571 0.665,-1.141 0.995,-1.712 0.459,1.057 0.971,2.091 1.544,3.093 -0.085,0.152 -0.168,0.305 -0.253,0.458zm-2.447 4.212c-0.54,-1.061 -1.046,-2.139 -1.508,-3.236 0.345,-0.574 0.689,-1.148 1.029,-1.725 0.539,1.051 1.049,2.114 1.532,3.192 -0.345,0.593 -0.697,1.182 -1.053,1.769zm-1.641 2.615c-0.551,-1.04 -1.052,-2.107 -1.496,-3.197 0.32,-0.512 0.637,-1.025 0.952,-1.539 0.475,1.08 0.982,2.146 1.529,3.193 -0.323,0.518 -0.652,1.032 -0.985,1.543zm-1.619 2.387l-1.481 -3.083c0.305,-0.464 0.608,-0.931 0.907,-1.4 0.458,1.061 0.964,2.099 1.52,3.113 -0.31,0.461 -0.626,0.917 -0.946,1.37zm-1.824 2.451c-0.479,-0.973 -0.958,-1.947 -1.437,-2.92 0.216,-0.303 0.431,-0.609 0.642,-0.917 0.151,-0.219 0.298,-0.442 0.447,-0.663l1.458 3.035c-0.362,0.494 -0.733,0.982 -1.11,1.465zm-1.07 1.327c-0.313,0.376 -0.634,0.745 -0.958,1.111 -0.526,-0.924 -0.961,-1.875 -1.305,-2.877 0.403,-0.494 0.799,-0.994 1.183,-1.505 0.47,0.955 0.939,1.909 1.409,2.863 -0.11,0.136 -0.217,0.274 -0.329,0.408zm-2.734 3.011c-0.483,-0.906 -0.913,-1.829 -1.287,-2.776 0.327,-0.347 0.649,-0.699 0.962,-1.059 0.369,0.959 0.817,1.887 1.343,2.771 -0.334,0.36 -0.673,0.715 -1.018,1.064zm-2.073 1.967l-1.267 -2.756c0.422,-0.373 0.837,-0.754 1.237,-1.149 0.387,0.929 0.821,1.839 1.305,2.723 -0.418,0.403 -0.843,0.796 -1.275,1.182zm-1.142 0.986c-0.229,0.189 -0.372,0.468 -0.484,0.764l-1.614 -2.919c0.384,-0.281 0.761,-0.57 1.128,-0.869 0.423,0.922 0.846,1.843 1.27,2.765 -0.101,0.085 -0.198,0.175 -0.3,0.259zm-1.584 3.752c-0.005,0.014 -0.01,0.027 -0.015,0.041 -0.658,-0.982 -1.271,-1.993 -1.837,-3.031 0.227,-0.63 0.453,-1.261 0.679,-1.891 0.593,1.073 1.186,2.145 1.779,3.218 0.005,0.008 0.011,0.015 0.016,0.023 -0.207,0.547 -0.414,1.094 -0.622,1.64zm-1.211 3.195c-0.634,-0.964 -1.235,-1.949 -1.801,-2.953 0.226,-0.631 0.452,-1.261 0.679,-1.892 0.56,0.972 1.16,1.921 1.802,2.841 0.016,0.024 0.035,0.046 0.055,0.067l-0.735 1.937zm-1.11 2.927c-0.588,-0.913 -1.201,-1.81 -1.837,-2.69 0.223,-0.621 0.446,-1.242 0.669,-1.864 0.572,0.973 1.175,1.926 1.811,2.859l-0.643 1.695zm-1.126 2.97c-0.602,-0.87 -1.204,-1.74 -1.806,-2.61l0.656 -1.826c0.591,0.843 1.163,1.7 1.711,2.573 0.028,0.044 0.063,0.082 0.101,0.117 -0.221,0.582 -0.442,1.164 -0.662,1.746zm-1.037 2.735l-1.707 -2.478c-0.019,-0.028 -0.04,-0.054 -0.064,-0.078 0.186,-0.517 0.372,-1.034 0.557,-1.551 0.578,0.836 1.156,1.672 1.734,2.507 0.018,0.026 0.038,0.049 0.059,0.072l-0.579 1.528zm-0.994 2.619c-0.562,-0.806 -1.124,-1.613 -1.686,-2.419 -0.017,-0.024 -0.036,-0.046 -0.056,-0.068 0.175,-0.486 0.349,-0.971 0.523,-1.457 0.548,0.796 1.097,1.592 1.645,2.388 0.032,0.047 0.073,0.088 0.117,0.125 -0.181,0.477 -0.362,0.954 -0.543,1.431zm1.188 6.776c0.013,0.023 0.025,0.047 0.039,0.07 -1.599,-1.33 -3.146,-2.721 -4.633,-4.175 -0.048,-0.046 -0.099,-0.078 -0.151,-0.103l0.334 -0.929c0.747,0.856 1.514,1.695 2.308,2.508 0.101,0.103 0.247,0.155 0.392,0.154 0.589,0.811 1.202,1.608 1.711,2.475zm0.999 3.341c-0.414,-0.656 -1.036,-1.262 -1.508,-1.733 -1.48,-1.479 -3.156,-2.747 -4.959,-3.802 0.112,-0.313 0.225,-0.627 0.337,-0.939 1.84,1.783 3.764,3.477 5.77,5.07 0.069,0.055 0.146,0.095 0.225,0.12 0.082,0.344 0.135,0.694 0.14,1.051 0.001,0.075 -0.001,0.153 -0.005,0.233zm-2.717 -9.007c0.022,0.032 0.048,0.061 0.076,0.089 -0.004,0.01 -0.008,0.021 -0.012,0.031 -0.163,0.428 -0.355,0.86 -0.504,1.298 -0.627,-0.668 -1.244,-1.344 -1.841,-2.038 0.21,-0.584 0.419,-1.167 0.629,-1.75l1.652 2.37zm0.517 10.151c-0.58,0.052 -1.23,-0.082 -1.8,-0.161 -1.298,-0.182 -2.584,-0.459 -3.848,-0.807 -2.449,-0.673 -4.803,-1.635 -7.041,-2.835 -1.092,-0.587 -2.155,-1.226 -3.187,-1.913 -0.679,-0.453 -2.359,-1.169 -2.508,-2.033 1.061,-0.195 2.214,-0.084 3.286,-0.018 1.49,0.091 2.955,0.33 4.408,0.668 0.465,0.286 1.084,0.256 1.374,-0.383 1.917,-4.223 3.724,-8.495 5.415,-12.813 0.85,-2.169 1.671,-4.35 2.462,-6.541 0.396,-1.096 0.784,-2.195 1.165,-3.296 0.157,-0.456 0.313,-0.912 0.468,-1.369 0.57,0.382 1.208,0.65 1.896,0.784l-0.513 1.428 -1.222 3.404c-0.815,2.269 -1.63,4.538 -2.445,6.807l-2.543 7.082c-0.424,1.18 -0.848,2.361 -1.272,3.541 -0.317,0.885 -1.183,2.242 -0.341,3.064 0.837,0.817 2.158,1.322 3.109,2.035 1.152,0.864 2.748,2.044 3.503,3.277 -0.116,0.034 -0.244,0.067 -0.366,0.079zm6.316 -89.739c1.14,-4.486 2.429,-8.933 3.852,-13.337 0.164,-0.506 0.237,-1.056 0.501,-1.524 0.258,-0.459 0.518,-0.266 0.945,-0.117 0.714,0.248 1.412,0.551 2.132,0.783 1.151,0.37 2.3,0.746 3.448,1.126 2.295,0.76 4.585,1.54 6.868,2.337 4.235,1.481 8.446,3.03 12.634,4.637 -2.637,10.723 -6.734,21.022 -11.698,30.9 -7.283,-3.068 -14.686,-5.83 -22.205,-8.264 0.96,-5.557 2.134,-11.077 3.523,-16.541zm33.968 -1.495c-0.135,-0.661 -0.272,-1.323 -0.408,-1.984 -0.14,-0.684 -0.28,-1.369 -0.421,-2.053 -0.103,-0.499 -0.223,-0.994 -0.453,-1.447 -0.084,-0.369 -0.362,-0.66 -0.753,-0.811 -0.795,-0.307 -1.591,-0.612 -2.387,-0.914 1.919,-0.703 3.844,-1.394 5.774,-2.068 2.283,-0.798 4.572,-1.577 6.868,-2.338 1.147,-0.38 2.297,-0.756 3.448,-1.126 0.719,-0.232 1.417,-0.535 2.132,-0.783 0.427,-0.149 0.686,-0.342 0.944,0.117 0.265,0.468 0.338,1.018 0.501,1.524 1.423,4.404 2.712,8.851 3.853,13.337 1.475,5.806 2.712,11.674 3.702,17.584 -7.581,1.951 -14.969,4.547 -22.115,7.737 -1.826,-3.609 -3.534,-7.276 -5.102,-10.999l0.15 -0.394c0.84,-2.218 1.641,-4.45 2.425,-6.688 0.393,-1.119 0.781,-2.24 1.168,-3.36 0.376,-1.088 0.847,-2.195 0.905,-3.359 0.033,-0.663 -0.099,-1.327 -0.231,-1.975zm-7.49 -8.362c-3.601,-1.339 -7.22,-2.632 -10.855,-3.876 -2.697,-0.923 -5.402,-1.82 -8.116,-2.691 -0.899,-0.288 -1.78,-0.651 -2.722,-0.779 -2.111,-0.285 -2.479,1.669 -2.996,3.272 -0.695,2.154 -1.357,4.318 -1.985,6.492 -1.256,4.346 -2.377,8.732 -3.362,13.149 -0.985,4.415 -1.833,8.861 -2.543,13.33 -0.71,4.468 -1.281,8.959 -1.712,13.463 -0.252,2.636 -0.455,5.276 -0.611,7.919 -0.317,5.4 -0.417,10.816 0.599,16.152 -2.709,8.097 -5.817,16.053 -9.321,23.84 -3.061,-0.63 -11.202,-1.928 -9.836,1.882 0.648,1.811 2.764,2.984 4.29,3.963 1.971,1.263 4.051,2.339 6.216,3.229 2.214,0.909 4.516,1.602 6.875,2.014 1.524,0.266 3.778,0.861 5.14,-0.188 1.526,-0.804 1.61,-3 1.192,-4.499 -0.284,-1.017 -0.794,-1.957 -1.378,-2.831 -0.297,-0.443 -0.613,-0.873 -0.929,-1.303 -0.157,-0.216 -0.315,-0.431 -0.471,-0.648 -0.071,-0.099 -0.144,-0.197 -0.211,-0.299 -0.086,-0.128 -0.074,-0.155 -0.023,-0.3 0.781,-2.186 1.648,-4.345 2.471,-6.514 0.823,-2.172 1.647,-4.343 2.47,-6.515l2.766 -7.292c4.006,-3.29 7.322,-7.325 10.197,-11.621 2.909,-4.348 5.381,-8.966 7.834,-13.58 0.892,-1.679 1.785,-3.359 2.648,-5.053 0.934,-1.836 1.8,-3.71 2.708,-5.558 0.933,-1.896 1.804,-3.821 2.629,-5.766 0.342,-0.806 0.675,-1.616 1.002,-2.428 2.942,6.686 6.316,13.181 9.96,19.51 2.434,4.229 4.916,8.47 7.678,12.495 2.423,3.53 5.193,6.802 8.717,9.261 2.95,8.215 5.899,16.43 8.85,24.645 -1.803,1.057 -3.479,2.324 -4.959,3.803 -1.069,1.068 -2.914,2.823 -1.347,4.302 1.334,1.259 3.73,0.617 5.324,0.338 2.359,-0.412 4.66,-1.105 6.874,-2.014 2.165,-0.889 4.246,-1.966 6.217,-3.229 1.526,-0.979 3.641,-2.152 4.29,-3.963 0.195,-0.544 0.19,-0.981 0.04,-1.333 -0.078,-1.353 -1.623,-2.487 -2.776,-2.991 -1.538,-0.672 -3.217,-0.848 -4.877,-0.961 -2.026,-5.33 -4.013,-10.674 -5.991,-16.022 -0.319,-0.863 -0.638,-1.726 -0.957,-2.589 -0.164,-0.444 -0.328,-0.889 -0.493,-1.334 -0.219,-0.594 -0.419,-0.905 -0.306,-1.543 0.118,-0.673 0.216,-1.351 0.306,-2.029 0.178,-1.354 0.305,-2.714 0.39,-4.077 0.17,-2.727 0.167,-5.462 0.052,-8.191 -0.121,-2.841 -0.363,-5.676 -0.664,-8.504 -0.474,-4.46 -0.827,-8.97 -1.643,-13.403 -0.345,-1.87 -0.734,-3.732 -1.124,-5.593 -0.463,-2.205 -0.965,-4.402 -1.496,-6.593 -1.588,-6.552 -3.42,-13.043 -5.218,-19.54 -0.229,-0.824 -0.42,-1.687 -0.846,-2.437 -0.354,-0.624 -0.89,-1.134 -1.521,-1.473 -0.712,-0.382 -1.507,-0.541 -2.3,-0.648 -0.763,-0.102 -1.57,-0.342 -2.344,-0.238 -0.941,0.127 -1.823,0.491 -2.722,0.779 -2.714,0.871 -5.419,1.768 -8.115,2.691 -3.672,1.257 -7.327,2.564 -10.965,3.917zm48.779 93.839c-1.032,0.687 -2.095,1.327 -3.187,1.913 -2.237,1.2 -4.592,2.162 -7.041,2.836 -1.263,0.347 -2.549,0.624 -3.847,0.806 -0.57,0.079 -1.221,0.213 -1.801,0.161 -0.122,-0.012 -0.25,-0.045 -0.365,-0.078 0.754,-1.234 2.35,-2.414 3.503,-3.278 0.95,-0.713 2.271,-1.218 3.109,-2.035 0.842,-0.822 -0.024,-2.179 -0.342,-3.064 -0.424,-1.18 -0.848,-2.361 -1.272,-3.541l-2.543 -7.082c-0.815,-2.269 -1.629,-4.538 -2.444,-6.807l-1.222 -3.403c-0.204,-0.567 -0.407,-1.135 -0.611,-1.702 -0.034,-0.093 -0.063,-0.193 -0.092,-0.295 0.655,-0.141 1.289,-0.439 1.864,-0.836 0.043,0.112 0.086,0.224 0.124,0.335 0.187,0.552 0.375,1.103 0.566,1.654 0.381,1.101 0.769,2.2 1.164,3.296 0.792,2.191 1.613,4.372 2.463,6.541 1.691,4.318 3.497,8.591 5.414,12.813 0.29,0.639 0.909,0.669 1.375,0.383 1.452,-0.338 2.917,-0.577 4.407,-0.668 1.072,-0.066 2.225,-0.177 3.287,0.018 -0.149,0.864 -1.83,1.581 -2.509,2.033zm-21.223 -28.901c-0.972,-0.836 -1.875,-1.741 -2.724,-2.696 -0.295,-0.899 -0.325,-1.978 0.25,-2.755 0.482,-0.651 1.453,-1.046 2.207,-0.645 0.467,0.248 1.009,-0.257 0.734,-0.734 -0.452,-0.786 -0.532,-1.719 -0.237,-2.575 0.226,-0.653 0.957,-1.66 1.732,-1.108 0.262,0.187 0.738,0.007 0.788,-0.32 0.102,-0.66 0.498,-1.265 1.137,-1.519 0.501,-0.2 1.077,-0.145 1.547,0.109 0.097,2.166 0.143,4.336 0.062,6.503 -0.084,2.268 0.295,7.09 -3.244,7.033 -0.929,-0.014 -1.593,-0.726 -2.252,-1.293zm-3.278 -6.156c-0.457,0.582 -0.667,1.263 -0.704,1.964 -1.334,-1.669 -2.54,-3.446 -3.687,-5.241 -3.818,-5.978 -7.449,-12.134 -10.739,-18.465 6.939,-3.103 14.127,-5.604 21.484,-7.511 0.42,2.669 0.794,5.345 1.111,8.027 0.549,4.64 0.949,9.299 1.192,13.965 -0.582,-0.178 -1.213,-0.182 -1.798,0.038 -0.77,0.29 -1.393,0.906 -1.695,1.663 -1.041,-0.229 -2.09,0.662 -2.52,1.605 -0.403,0.883 -0.479,1.872 -0.241,2.794 -0.911,-0.019 -1.824,0.425 -2.403,1.161zm5.964 -42.809c0.836,0.055 1.669,0.136 2.501,0.24 0.131,0.534 0.259,1.068 0.388,1.603 -0.851,-0.085 -1.701,-0.171 -2.551,-0.256 -0.113,-0.529 -0.221,-1.059 -0.338,-1.587zm-0.636 -2.792c0.796,0.022 1.593,0.043 2.39,0.065 0.159,0.619 0.313,1.24 0.468,1.861 -0.82,-0.098 -1.642,-0.171 -2.466,-0.221 -0.129,-0.569 -0.259,-1.137 -0.392,-1.705zm-0.705 -2.905c0.786,0.153 1.586,0.237 2.386,0.25 0.145,0.546 0.288,1.093 0.43,1.639l-2.371 -0.064c-0.147,-0.609 -0.293,-1.218 -0.445,-1.825zm-0.752 -2.935c0.226,0.028 0.45,0.06 0.686,0.099 0.524,0.086 1.043,0.193 1.558,0.318 0.052,0.013 0.105,0.015 0.158,0.013 0.151,0.558 0.3,1.117 0.45,1.676 -0.83,-0.029 -1.574,-0.134 -2.392,-0.333 -0.151,-0.591 -0.304,-1.183 -0.46,-1.773zm-0.776 -2.863c0.275,0.045 0.559,0.096 0.819,0.148 0.521,0.105 1.039,0.228 1.552,0.369 0.017,0.004 0.034,0.005 0.051,0.008 0.149,0.541 0.298,1.082 0.446,1.623 -0.789,-0.175 -1.587,-0.304 -2.391,-0.39 -0.158,-0.586 -0.314,-1.173 -0.477,-1.758zm-0.59 -2.101c-0.069,-0.241 -0.141,-0.48 -0.212,-0.72 0.763,0.186 1.526,0.373 2.289,0.561 0.056,0.013 0.115,0.015 0.173,0.011 0.147,0.53 0.291,1.059 0.437,1.589 -0.796,-0.195 -1.6,-0.347 -2.412,-0.461 -0.092,-0.327 -0.18,-0.655 -0.275,-0.98zm-1.076 -3.591l2.505 0.542c0.006,0.001 0.013,0.001 0.019,0.002 0.161,0.582 0.322,1.165 0.483,1.747 -0.831,-0.204 -1.664,-0.408 -2.495,-0.612 -0.169,-0.56 -0.34,-1.119 -0.512,-1.679zm-0.367 -1.172c-0.124,-0.394 -0.244,-0.79 -0.37,-1.184 0.862,0.14 1.723,0.285 2.582,0.439 0.053,0.192 0.104,0.384 0.156,0.574 0.067,0.241 0.133,0.482 0.2,0.723 -0.843,-0.183 -1.687,-0.365 -2.53,-0.547 -0.012,-0.003 -0.025,-0.003 -0.038,-0.005zm-1.245 -3.719c0.572,0.072 1.133,0.202 1.646,0.448 0.507,0.243 0.945,0.588 1.241,1.071 0.059,0.097 0.111,0.198 0.161,0.299 -0.842,-0.147 -1.686,-0.288 -2.53,-0.422 -0.15,-0.484 -0.307,-0.97 -0.518,-1.396zm9.714 26.812c-0.893,-0.139 -1.783,-0.289 -2.672,-0.45 -0.107,-0.534 -0.212,-1.067 -0.323,-1.6 0.86,0.086 1.72,0.172 2.58,0.259 0.141,0.597 0.279,1.194 0.415,1.791zm0.249 1.119c0.098,0.441 0.192,0.884 0.288,1.326 -0.899,-0.105 -1.799,-0.201 -2.701,-0.289 -0.093,-0.494 -0.186,-0.987 -0.283,-1.481 0.886,0.156 1.772,0.305 2.661,0.441 0.012,0.002 0.024,0.001 0.035,0.003zm0.786 3.717c-0.907,-0.053 -1.816,-0.072 -2.724,-0.056 -0.09,-0.51 -0.179,-1.021 -0.272,-1.53 0.912,0.09 1.822,0.187 2.732,0.295 0.09,0.43 0.177,0.86 0.264,1.291zm0.504 2.635c-0.925,-0.006 -1.85,-0.012 -2.775,-0.018 -0.087,-0.535 -0.174,-1.069 -0.265,-1.603 0.917,-0.011 1.833,0.013 2.749,0.072 0.099,0.516 0.195,1.032 0.291,1.549zm0.194 1.075c0.09,0.506 0.18,1.011 0.264,1.518 0.014,0.085 0.026,0.169 0.04,0.254 -0.947,-0.036 -1.894,-0.053 -2.841,-0.058 -0.086,-0.578 -0.169,-1.156 -0.259,-1.733 0.932,0.007 1.864,0.013 2.796,0.019zm0.472 2.849c0.088,0.583 0.167,1.168 0.244,1.752 -0.961,-0.1 -1.923,-0.201 -2.884,-0.301 -0.069,-0.504 -0.137,-1.008 -0.209,-1.512 0.949,0.007 1.897,0.025 2.845,0.062 0.001,0 0.003,-0.001 0.004,-0.001zm0.593 4.644c-0.956,-0.134 -1.91,-0.269 -2.866,-0.403 -0.07,-0.567 -0.142,-1.135 -0.217,-1.701 0.958,0.1 1.915,0.2 2.872,0.301 0.074,0.6 0.143,1.201 0.211,1.803zm0.047 1.081c0.024,0.004 0.047,0.004 0.071,0.006 0.06,0.556 0.118,1.111 0.176,1.667 -0.944,-0.2 -1.912,-0.196 -2.841,-0.423 -0.061,-0.547 -0.122,-1.094 -0.187,-1.64l2.781 0.39zm0.542 4.463c0.011,0.106 0.021,0.212 0.033,0.317 -0.951,-0.168 -1.901,-0.336 -2.851,-0.504 -0.062,-0.635 -0.126,-1.269 -0.194,-1.903 0.945,0.17 1.916,0.172 2.837,0.436 0.058,0.552 0.116,1.104 0.175,1.654zm0.3 3.017c-0.957,-0.224 -1.92,-0.42 -2.889,-0.587 -0.042,-0.504 -0.08,-1.009 -0.126,-1.513l2.862 0.506c0.054,0.531 0.104,1.062 0.153,1.594zm0.099 1.122c0.051,0.603 0.096,1.205 0.138,1.808 -0.961,-0.338 -1.934,-0.638 -2.918,-0.9 -0.038,-0.505 -0.075,-1.01 -0.116,-1.516 0.966,0.174 1.927,0.376 2.882,0.607 0.004,0.001 0.009,0.001 0.014,0.001zm0.214 2.963c0.008,0.138 0.016,0.277 0.024,0.416 0.028,0.511 0.052,1.022 0.072,1.533 -0.948,-0.399 -1.912,-0.758 -2.892,-1.073 -0.001,-0.01 -0.001,-0.02 -0.002,-0.029 -0.034,-0.59 -0.075,-1.18 -0.115,-1.769 0.968,0.268 1.927,0.571 2.872,0.913 0.013,0.005 0.027,0.006 0.041,0.009zm0.136 3.121c0.019,0.685 0.027,1.37 0.03,2.055 -0.933,-0.4 -1.869,-0.791 -2.811,-1.171 -0.024,-0.661 -0.053,-1.323 -0.088,-1.985 0.966,0.32 1.918,0.683 2.849,1.094 0.007,0.003 0.013,0.004 0.02,0.007zm-0.723 14.27c0.057,0.094 0.118,0.189 0.173,0.293 0.196,0.369 0.36,0.758 0.51,1.154 -0.992,-0.144 -1.988,-0.264 -2.987,-0.358 -0.168,-0.494 -0.34,-0.987 -0.506,-1.482 0.01,-0.054 0.018,-0.109 0.028,-0.163 0.922,0.211 1.85,0.396 2.782,0.556zm-1.407 -3.111c0.245,0.059 0.49,0.119 0.732,0.191 0.264,0.079 0.5,0.164 0.679,0.248 0.032,0.015 0.065,0.028 0.099,0.037 -0.049,0.324 -0.101,0.647 -0.156,0.969 -0.031,0.181 -0.084,0.364 -0.125,0.548 -0.812,-0.147 -1.62,-0.312 -2.423,-0.497 0.091,-0.577 0.174,-1.153 0.242,-1.731 0.315,0.086 0.633,0.16 0.952,0.235zm1.858 -2.301c-0.056,0.565 -0.122,1.128 -0.195,1.691 -0.81,-0.322 -1.671,-0.458 -2.504,-0.707 0.056,-0.598 0.106,-1.198 0.141,-1.797 0.853,0.271 1.705,0.542 2.558,0.813zm-2.473 -6.808c0.927,0.377 1.851,0.762 2.77,1.16 -0.008,0.663 -0.024,1.326 -0.049,1.988 -0.886,-0.396 -1.785,-0.761 -2.696,-1.094 -0.001,-0.684 -0.007,-1.369 -0.025,-2.054zm0.019 3.192c0.897,0.336 1.778,0.702 2.647,1.103 -0.013,0.229 -0.025,0.458 -0.041,0.686 -0.016,0.244 -0.035,0.488 -0.055,0.732l-2.599 -0.826c0.023,-0.565 0.04,-1.13 0.048,-1.695zm3.081 11.594c0.087,0.254 0.175,0.508 0.267,0.757 0.147,0.396 0.294,0.793 0.44,1.189 -1.029,-0.142 -2.054,-0.313 -3.073,-0.509 -0.214,-0.601 -0.428,-1.202 -0.637,-1.805 0.955,0.097 1.907,0.216 2.855,0.361 0.05,0.008 0.099,0.009 0.148,0.007zm1.126 3.077c0.197,0.531 0.393,1.062 0.59,1.594 0.005,0.013 0.009,0.026 0.014,0.038 -1.012,-0.203 -2.036,-0.343 -3.065,-0.419 -0.207,-0.562 -0.414,-1.123 -0.617,-1.687 1.022,0.184 2.048,0.341 3.078,0.474zm1.038 2.798c0.153,0.412 0.308,0.823 0.461,1.235 -0.996,-0.111 -1.995,-0.194 -2.996,-0.245 -0.186,-0.489 -0.371,-0.978 -0.554,-1.468 0.99,0.093 1.973,0.246 2.945,0.465 0.048,0.011 0.097,0.014 0.144,0.013zm0.869 2.329c0.242,0.652 0.486,1.304 0.729,1.957 -1.028,-0.095 -2.032,-0.462 -3.071,-0.565 -0.214,-0.543 -0.431,-1.086 -0.641,-1.631 0.956,0.058 1.91,0.135 2.861,0.247 0.041,0.005 0.082,0.001 0.122,-0.008zm1.598 4.289c0.02,0.052 0.039,0.104 0.059,0.156 -0.462,-0.046 -0.924,-0.092 -1.386,-0.139 -0.502,-0.05 -1.006,-0.088 -1.507,-0.147 -0.221,-0.545 -0.444,-1.088 -0.661,-1.634 1.007,0.168 1.998,0.516 3.035,0.528 0.153,0.412 0.306,0.824 0.46,1.236zm1.073 2.842c-0.909,-0.185 -1.844,-0.146 -2.768,-0.208 -0.229,-0.546 -0.457,-1.091 -0.681,-1.638 0.95,0.105 1.905,0.181 2.855,0.276 0.197,0.524 0.396,1.047 0.594,1.57zm0.426 1.127c0.144,0.38 0.287,0.759 0.43,1.138 -0.845,0.034 -1.691,0.058 -2.537,0.071 -0.209,-0.483 -0.418,-0.966 -0.624,-1.45 0.827,0.029 1.652,0.022 2.432,0.249 0.097,0.028 0.202,0.023 0.299,-0.008zm1.235 2.069c0.916,0.059 1.84,0.13 2.744,0.298l-5.286 0.672c-0.113,-0.255 -0.228,-0.51 -0.34,-0.766 0.85,-0.017 1.7,-0.04 2.549,-0.079 0.121,-0.005 0.238,-0.052 0.333,-0.125z"/></g></g></svg>