<?xml version="1.0" encoding="UTF-8" standalone="no"?>
<svg
   xmlns:dc="http://purl.org/dc/elements/1.1/"
   xmlns:cc="http://creativecommons.org/ns#"
   xmlns:rdf="http://www.w3.org/1999/02/22-rdf-syntax-ns#"
   xmlns:svg="http://www.w3.org/2000/svg"
   xmlns="http://www.w3.org/2000/svg"
   xmlns:sodipodi="http://sodipodi.sourceforge.net/DTD/sodipodi-0.dtd"
   xmlns:inkscape="http://www.inkscape.org/namespaces/inkscape"
   inkscape:export-ydpi="576"
   inkscape:export-xdpi="576"
   inkscape:export-filename="E:\Filedline\9 - Strawberry Jam.png"
   width="64pt"
   height="64pt"
   viewBox="0 0 22.577778 22.577778"
   version="1.1"
   id="svg831"
   inkscape:version="1.0 (4035a4fb49, 2020-05-01)"
   sodipodi:docname="EXPORT 64px.svg">
  <defs
     id="defs825">
    <pattern
       id="EMFhbasepattern"
       patternUnits="userSpaceOnUse"
       width="6"
       height="6"
       x="0"
       y="0" />
    <pattern
       id="EMFhbasepattern-9"
       patternUnits="userSpaceOnUse"
       width="6"
       height="6"
       x="0"
       y="0" />
    <pattern
       id="EMFhbasepattern-0"
       patternUnits="userSpaceOnUse"
       width="6"
       height="6"
       x="0"
       y="0" />
    <pattern
       id="EMFhbasepattern-7"
       patternUnits="userSpaceOnUse"
       width="6"
       height="6"
       x="0"
       y="0" />
    <pattern
       id="EMFhbasepattern-2"
       patternUnits="userSpaceOnUse"
       width="6"
       height="6"
       x="0"
       y="0" />
    <pattern
       id="EMFhbasepattern-98"
       patternUnits="userSpaceOnUse"
       width="6"
       height="6"
       x="0"
       y="0" />
    <pattern
       id="EMFhbasepattern-6"
       patternUnits="userSpaceOnUse"
       width="6"
       height="6"
       x="0"
       y="0" />
    <pattern
       id="EMFhbasepattern-01"
       patternUnits="userSpaceOnUse"
       width="6"
       height="6"
       x="0"
       y="0" />
    <pattern
       id="EMFhbasepattern-07"
       patternUnits="userSpaceOnUse"
       width="6"
       height="6"
       x="0"
       y="0" />
    <pattern
       id="EMFhbasepattern-8"
       patternUnits="userSpaceOnUse"
       width="6"
       height="6"
       x="0"
       y="0" />
    <pattern
       id="EMFhbasepattern-4"
       patternUnits="userSpaceOnUse"
       width="6"
       height="6"
       x="0"
       y="0" />
    <pattern
       id="EMFhbasepattern-40"
       patternUnits="userSpaceOnUse"
       width="6"
       height="6"
       x="0"
       y="0" />
    <pattern
       id="EMFhbasepattern-08"
       patternUnits="userSpaceOnUse"
       width="6"
       height="6"
       x="0"
       y="0" />
    <pattern
       id="EMFhbasepattern-04"
       patternUnits="userSpaceOnUse"
       width="6"
       height="6"
       x="0"
       y="0" />
    <pattern
       id="EMFhbasepattern-014"
       patternUnits="userSpaceOnUse"
       width="6"
       height="6"
       x="0"
       y="0" />
    <pattern
       id="EMFhbasepattern-27"
       patternUnits="userSpaceOnUse"
       width="6"
       height="6"
       x="0"
       y="0" />
    <pattern
       id="EMFhbasepattern-09"
       patternUnits="userSpaceOnUse"
       width="6"
       height="6"
       x="0"
       y="0" />
    <pattern
       id="EMFhbasepattern-5"
       patternUnits="userSpaceOnUse"
       width="6"
       height="6"
       x="0"
       y="0" />
    <pattern
       id="EMFhbasepattern-018"
       patternUnits="userSpaceOnUse"
       width="6"
       height="6"
       x="0"
       y="0" />
  </defs>
  <sodipodi:namedview
     id="base"
     pagecolor="#ffffff"
     bordercolor="#666666"
     borderopacity="1.0"
     inkscape:pageopacity="0.0"
     inkscape:pageshadow="2"
     inkscape:zoom="3.3909162"
     inkscape:cx="9.805947"
     inkscape:cy="23.142722"
     inkscape:document-units="pt"
     inkscape:current-layer="g1692"
     showgrid="false"
     units="pt"
     inkscape:window-width="1366"
     inkscape:window-height="715"
     inkscape:window-x="-8"
     inkscape:window-y="-8"
     inkscape:window-maximized="1"
     inkscape:pagecheckerboard="true"
     inkscape:showpageshadow="false"
     inkscape:object-paths="true"
     inkscape:snap-intersection-paths="true"
     inkscape:snap-smooth-nodes="true"
     inkscape:snap-midpoints="true"
     showguides="true"
     inkscape:snap-bbox="true"
     inkscape:bbox-nodes="true"
     inkscape:snap-nodes="false"
     inkscape:snap-global="true"
     inkscape:document-rotation="0">
    <inkscape:grid
       type="xygrid"
       id="grid1378" />
    <sodipodi:guide
       position="0.97013831,21.607643"
       orientation="78.000048,0"
       id="guide1380"
       inkscape:locked="false" />
    <sodipodi:guide
       position="0.97013831,0.97013129"
       orientation="0,78.000005"
       id="guide1382"
       inkscape:locked="false" />
    <sodipodi:guide
       position="21.607639,0.97013129"
       orientation="-78.000048,0"
       id="guide1384"
       inkscape:locked="false" />
    <sodipodi:guide
       position="21.607639,21.607643"
       orientation="0,-78.000005"
       id="guide1386"
       inkscape:locked="false" />
  </sodipodi:namedview>
  <metadata
     id="metadata828">
    <rdf:RDF>
      <cc:Work
         rdf:about="">
        <dc:format>image/svg+xml</dc:format>
        <dc:type
           rdf:resource="http://purl.org/dc/dcmitype/StillImage" />
        <dc:title></dc:title>
      </cc:Work>
    </rdf:RDF>
  </metadata>
  <g
     inkscape:label="Icon"
     inkscape:groupmode="layer"
     id="layer1"
     transform="translate(0,-274.42223)">
    <g
       transform="matrix(1.2578954,0,0,1.2578954,0.63862052,-77.233473)"
       style="display:inline"
       id="g1692">
      <g
         transform="matrix(1.0000661,0,0,1.0000661,-30.50556,-0.0196582)"
         style="display:inline"
         id="g1150">
        <path
           d="m 34.736382,285.19915 a 0.26460996,0.26460996 0 0 0 -0.263549,0.29714 c 0.05701,0.4597 0.170572,1.34391 -0.08423,1.98903 l 0.437697,0.1633 c 0.319768,0.0873 0.66675,0.0363 0.952916,-0.15452 0.568901,-0.37927 1.312119,-0.37927 1.88102,0 0.392409,0.26161 0.902605,0.26161 1.295012,0 0.568904,-0.37927 1.311603,-0.37927 1.880504,0 0.392409,0.26161 0.902603,0.26161 1.295014,0 0.249296,-0.1662 0.53186,-0.26052 0.818552,-0.28112 a 0.26460996,0.26460996 0 0 1 0.02739,0 l 0.495059,0.016 c -0.147161,-0.60694 -0.05648,-1.33126 -0.0067,-1.73271 a 0.26460996,0.26460996 0 0 0 -0.261998,-0.29714 z"
           style="color:#000000;font-style:normal;font-variant:normal;font-weight:normal;font-stretch:normal;font-size:medium;line-height:normal;font-family:sans-serif;font-variant-ligatures:normal;font-variant-position:normal;font-variant-caps:normal;font-variant-numeric:normal;font-variant-alternates:normal;font-variant-east-asian:normal;font-feature-settings:normal;font-variation-settings:normal;text-indent:0;text-align:start;text-decoration:none;text-decoration-line:none;text-decoration-style:solid;text-decoration-color:#000000;letter-spacing:normal;word-spacing:normal;text-transform:none;writing-mode:lr-tb;direction:ltr;text-orientation:mixed;dominant-baseline:auto;baseline-shift:baseline;text-anchor:start;white-space:normal;shape-padding:0;shape-margin:0;inline-size:0;clip-rule:nonzero;display:inline;overflow:visible;visibility:visible;isolation:auto;mix-blend-mode:normal;color-interpolation:sRGB;color-interpolation-filters:linearRGB;solid-color:#000000;solid-opacity:1;vector-effect:none;fill:#ececec;fill-opacity:1;fill-rule:nonzero;stroke:none;stroke-width:0.529167;stroke-linecap:round;stroke-linejoin:round;stroke-miterlimit:4;stroke-dasharray:none;stroke-dashoffset:0;stroke-opacity:1;color-rendering:auto;image-rendering:auto;shape-rendering:auto;text-rendering:auto;enable-background:accumulate;stop-color:#000000"
           id="path639" />
        <path
           sodipodi:nodetypes="cccccccccccccc"
           id="path656"
           d="m 42.074434,280.33383 c -0.316441,-0.0169 -0.642678,0.0441 -0.918289,0.23461 -0.275609,0.19042 -0.482844,0.50432 -0.58601,0.92759 -0.541348,2.01464 -1.085199,4.04531 -1.644322,6.13296 l -0.263549,0.98805 c -0.0472,0.17969 0.100611,0.35081 0.285253,0.33022 l 1.185458,-0.13075 c 0.107963,-0.0119 0.19771,-0.0885 0.226343,-0.19327 l 0.277503,-1.04128 c 0.587687,-2.19867 1.240874,-4.62743 1.784387,-6.65489 0.246221,0.0693 0.493831,0.18678 0.698148,0.32298 0.121851,0.0808 0.286181,0.0475 0.366903,-0.0744 0.08095,-0.12172 0.04786,-0.28602 -0.0739,-0.36691 -0.469009,-0.26689 -0.848974,-0.42665 -1.337927,-0.4749 z"
           style="color:#000000;font-style:normal;font-variant:normal;font-weight:normal;font-stretch:normal;font-size:medium;line-height:normal;font-family:sans-serif;font-variant-ligatures:normal;font-variant-position:normal;font-variant-caps:normal;font-variant-numeric:normal;font-variant-alternates:normal;font-variant-east-asian:normal;font-feature-settings:normal;font-variation-settings:normal;text-indent:0;text-align:start;text-decoration:none;text-decoration-line:none;text-decoration-style:solid;text-decoration-color:#000000;letter-spacing:normal;word-spacing:normal;text-transform:none;writing-mode:lr-tb;direction:ltr;text-orientation:mixed;dominant-baseline:auto;baseline-shift:baseline;text-anchor:start;white-space:normal;shape-padding:0;shape-margin:0;inline-size:0;clip-rule:nonzero;display:inline;overflow:visible;visibility:visible;isolation:auto;mix-blend-mode:normal;color-interpolation:sRGB;color-interpolation-filters:linearRGB;solid-color:#000000;solid-opacity:1;vector-effect:none;fill:#4d4d4d;fill-opacity:1;fill-rule:nonzero;stroke:none;stroke-width:0.529167;stroke-linecap:round;stroke-linejoin:round;stroke-miterlimit:4;stroke-dasharray:none;stroke-dashoffset:0;stroke-opacity:1;color-rendering:auto;image-rendering:auto;shape-rendering:auto;text-rendering:auto;enable-background:accumulate;stop-color:#000000" />
        <path
           sodipodi:nodetypes="ccccccccssssccccc"
           id="path618"
           style="color:#000000;font-style:normal;font-variant:normal;font-weight:normal;font-stretch:normal;font-size:medium;line-height:normal;font-family:sans-serif;font-variant-ligatures:normal;font-variant-position:normal;font-variant-caps:normal;font-variant-numeric:normal;font-variant-alternates:normal;font-variant-east-asian:normal;font-feature-settings:normal;font-variation-settings:normal;text-indent:0;text-align:start;text-decoration:none;text-decoration-line:none;text-decoration-style:solid;text-decoration-color:#000000;letter-spacing:normal;word-spacing:normal;text-transform:none;writing-mode:lr-tb;direction:ltr;text-orientation:mixed;dominant-baseline:auto;baseline-shift:baseline;text-anchor:start;white-space:normal;shape-padding:0;shape-margin:0;inline-size:0;clip-rule:nonzero;display:inline;overflow:visible;visibility:visible;isolation:auto;mix-blend-mode:normal;color-interpolation:sRGB;color-interpolation-filters:linearRGB;solid-color:#000000;solid-opacity:1;vector-effect:none;fill:#c00f0c;fill-opacity:1;fill-rule:nonzero;stroke:none;stroke-width:0.529167;stroke-linecap:round;stroke-linejoin:round;stroke-miterlimit:4;stroke-dasharray:none;stroke-dashoffset:0;stroke-opacity:1;color-rendering:auto;image-rendering:auto;shape-rendering:auto;text-rendering:auto;enable-background:accumulate;stop-color:#000000"
           d="m 35.779213,287.49411 c -0.267478,0.17834 -0.587497,0.22957 -0.889352,0.16485 -0.05341,0.13171 -0.115443,0.26157 -0.958817,1.76748 -0.843373,1.5059 -0.704734,4.51376 0.858991,6.78081 h 8.231624 c 1.562041,-2.26465 1.829035,-5.26849 0.219109,-8.17005 v -5.1e-4 c -0.171302,-0.26056 -0.26865,-0.54031 -0.325046,-0.81908 -0.275082,0.0254 -0.545454,0.1168 -0.784963,0.27647 -0.392414,0.26161 -0.902605,0.26161 -1.295014,0 -0.568902,-0.37927 -1.3116,-0.37927 -1.880505,0 -0.392406,0.26161 -0.902602,0.26161 -1.295011,0 -0.284451,-0.18964 -0.612521,-0.28422 -0.940508,-0.28421 -0.327987,2e-5 -0.656057,0.0946 -0.940508,0.28424 z m 7.692552,-0.26512 c 0.03439,0.14195 0.07996,0.27819 0.144179,0.40153 -0.06369,-0.12363 -0.109741,-0.2595 -0.144179,-0.40153 z" />
        <path
           sodipodi:nodetypes="cccccccssssccccc"
           id="path1901"
           style="fill:#a60f0c;fill-opacity:1;stroke:none;stroke-width:0.264583px;stroke-linecap:butt;stroke-linejoin:miter;stroke-opacity:1"
           d="m 35.779213,287.49411 c -0.26748,0.17834 -0.587494,0.22957 -0.889352,0.16485 -0.176972,0.36817 -0.366654,0.69732 -0.538474,1.07743 13.234713,-1.21018 6.633186,4.97355 8.543666,7.47086 h 0.392703 c 1.562041,-2.26465 1.562938,-5.26849 0.672324,-6.84981 -0.890614,-1.58131 -0.987962,-1.86106 -1.044358,-2.13983 -0.275082,0.0254 -0.545457,0.1168 -0.784963,0.27647 -0.392417,0.26161 -0.902605,0.26161 -1.295014,0 -0.568902,-0.37927 -1.3116,-0.37927 -1.880505,0 -0.392406,0.26161 -0.902602,0.26161 -1.295011,0 -0.284451,-0.18964 -0.612521,-0.28422 -0.940508,-0.28421 -0.327987,2e-5 -0.656057,0.0946 -0.940508,0.28424 z m 7.692552,-0.26512 c 0.03439,0.14195 0.07996,0.27819 0.144179,0.40153 -0.06369,-0.12364 -0.109741,-0.2595 -0.144179,-0.40153 z" />
        <path
           style="color:#000000;font-style:normal;font-variant:normal;font-weight:normal;font-stretch:normal;font-size:medium;line-height:normal;font-family:sans-serif;font-variant-ligatures:normal;font-variant-position:normal;font-variant-caps:normal;font-variant-numeric:normal;font-variant-alternates:normal;font-variant-east-asian:normal;font-feature-settings:normal;font-variation-settings:normal;text-indent:0;text-align:start;text-decoration:none;text-decoration-line:none;text-decoration-style:solid;text-decoration-color:#000000;letter-spacing:normal;word-spacing:normal;text-transform:none;writing-mode:lr-tb;direction:ltr;text-orientation:mixed;dominant-baseline:auto;baseline-shift:baseline;text-anchor:start;white-space:normal;shape-padding:0;shape-margin:0;inline-size:0;clip-rule:nonzero;display:inline;overflow:visible;visibility:visible;isolation:auto;mix-blend-mode:normal;color-interpolation:sRGB;color-interpolation-filters:linearRGB;solid-color:#000000;solid-opacity:1;vector-effect:none;fill:#f01c19;fill-opacity:1;fill-rule:nonzero;stroke:none;stroke-width:0.529167;stroke-linecap:round;stroke-linejoin:round;stroke-miterlimit:4;stroke-dasharray:none;stroke-dashoffset:0;stroke-opacity:1;color-rendering:auto;image-rendering:auto;shape-rendering:auto;text-rendering:auto;enable-background:accumulate;stop-color:#000000"
           d="m 36.360164,288.33627 a 0.30210639,0.30210639 0 0 0 -0.301066,0.30329 0.30210639,0.30210639 0 0 0 0.301066,0.30106 0.30210639,0.30210639 0 0 0 0.303295,-0.30106 0.30210639,0.30210639 0 0 0 -0.303295,-0.30329 z"
           id="path1113-4" />
        <path
           id="path1260"
           d="m 35.301831,289.66037 a 0.30210639,0.30210639 0 0 0 -0.301066,0.30329 0.30210639,0.30210639 0 0 0 0.301066,0.30106 0.30210639,0.30210639 0 0 0 0.303295,-0.30106 0.30210639,0.30210639 0 0 0 -0.303295,-0.30329 z"
           style="color:#000000;font-style:normal;font-variant:normal;font-weight:normal;font-stretch:normal;font-size:medium;line-height:normal;font-family:sans-serif;font-variant-ligatures:normal;font-variant-position:normal;font-variant-caps:normal;font-variant-numeric:normal;font-variant-alternates:normal;font-variant-east-asian:normal;font-feature-settings:normal;font-variation-settings:normal;text-indent:0;text-align:start;text-decoration:none;text-decoration-line:none;text-decoration-style:solid;text-decoration-color:#000000;letter-spacing:normal;word-spacing:normal;text-transform:none;writing-mode:lr-tb;direction:ltr;text-orientation:mixed;dominant-baseline:auto;baseline-shift:baseline;text-anchor:start;white-space:normal;shape-padding:0;shape-margin:0;inline-size:0;clip-rule:nonzero;display:inline;overflow:visible;visibility:visible;isolation:auto;mix-blend-mode:normal;color-interpolation:sRGB;color-interpolation-filters:linearRGB;solid-color:#000000;solid-opacity:1;vector-effect:none;fill:#f01c19;fill-opacity:1;fill-rule:nonzero;stroke:none;stroke-width:0.529167;stroke-linecap:round;stroke-linejoin:round;stroke-miterlimit:4;stroke-dasharray:none;stroke-dashoffset:0;stroke-opacity:1;color-rendering:auto;image-rendering:auto;shape-rendering:auto;text-rendering:auto;enable-background:accumulate;stop-color:#000000" />
        <path
           style="color:#000000;font-style:normal;font-variant:normal;font-weight:normal;font-stretch:normal;font-size:medium;line-height:normal;font-family:sans-serif;font-variant-ligatures:normal;font-variant-position:normal;font-variant-caps:normal;font-variant-numeric:normal;font-variant-alternates:normal;font-variant-east-asian:normal;font-feature-settings:normal;font-variation-settings:normal;text-indent:0;text-align:start;text-decoration:none;text-decoration-line:none;text-decoration-style:solid;text-decoration-color:#000000;letter-spacing:normal;word-spacing:normal;text-transform:none;writing-mode:lr-tb;direction:ltr;text-orientation:mixed;dominant-baseline:auto;baseline-shift:baseline;text-anchor:start;white-space:normal;shape-padding:0;shape-margin:0;inline-size:0;clip-rule:nonzero;display:inline;overflow:visible;visibility:visible;isolation:auto;mix-blend-mode:normal;color-interpolation:sRGB;color-interpolation-filters:linearRGB;solid-color:#000000;solid-opacity:1;vector-effect:none;fill:#f01c19;fill-opacity:1;fill-rule:nonzero;stroke:none;stroke-width:0.529167;stroke-linecap:round;stroke-linejoin:round;stroke-miterlimit:4;stroke-dasharray:none;stroke-dashoffset:0;stroke-opacity:1;color-rendering:auto;image-rendering:auto;shape-rendering:auto;text-rendering:auto;enable-background:accumulate;stop-color:#000000"
           d="m 37.418497,289.1312 a 0.30210639,0.30210639 0 0 0 -0.301065,0.30329 0.30210639,0.30210639 0 0 0 0.301065,0.30106 0.30210639,0.30210639 0 0 0 0.303295,-0.30106 0.30210639,0.30210639 0 0 0 -0.303295,-0.30329 z"
           id="path1262" />
        <path
           sodipodi:nodetypes="cccccccccc"
           d="m 34.736382,285.19916 c -0.159425,-5.7e-4 -0.28315,0.13892 -0.26355,0.29714 0.02394,0.19301 0.0532,0.46763 0.06563,0.7612 h 7.05289 c 0.450312,0 0.785592,0.36393 0.759224,0.81353 -0.007,0.11875 -0.01243,0.22751 -0.01465,0.30681 0.403048,-0.18971 0.69496,-0.1631 1.135846,-0.14885 -0.147158,-0.60694 -0.0565,-1.33126 -0.0067,-1.73271 0.01952,-0.1576 -0.103196,-0.29678 -0.261998,-0.29714 z"
           style="color:#000000;font-style:normal;font-variant:normal;font-weight:normal;font-stretch:normal;font-size:medium;line-height:normal;font-family:sans-serif;font-variant-ligatures:normal;font-variant-position:normal;font-variant-caps:normal;font-variant-numeric:normal;font-variant-alternates:normal;font-variant-east-asian:normal;font-feature-settings:normal;font-variation-settings:normal;text-indent:0;text-align:start;text-decoration:none;text-decoration-line:none;text-decoration-style:solid;text-decoration-color:#000000;letter-spacing:normal;word-spacing:normal;text-transform:none;writing-mode:lr-tb;direction:ltr;text-orientation:mixed;dominant-baseline:auto;baseline-shift:baseline;text-anchor:start;white-space:normal;shape-padding:0;shape-margin:0;inline-size:0;clip-rule:nonzero;display:inline;overflow:visible;visibility:visible;isolation:auto;mix-blend-mode:normal;color-interpolation:sRGB;color-interpolation-filters:linearRGB;solid-color:#000000;solid-opacity:1;vector-effect:none;fill:#d9d9d9;fill-opacity:1;fill-rule:nonzero;stroke:none;stroke-width:0.529167;stroke-linecap:round;stroke-linejoin:round;stroke-miterlimit:4;stroke-dasharray:none;stroke-dashoffset:0;stroke-opacity:1;color-rendering:auto;image-rendering:auto;shape-rendering:auto;text-rendering:auto;enable-background:accumulate;stop-color:#000000"
           id="path1626" />
        <path
           d="m 39.576397,285.19916 -0.05271,0.19741 -0.230476,0.86093 h 1.698085 l 0.194305,-0.72451 0.0894,-0.33383 z"
           style="color:#000000;font-style:normal;font-variant:normal;font-weight:normal;font-stretch:normal;font-size:medium;line-height:normal;font-family:sans-serif;font-variant-ligatures:normal;font-variant-position:normal;font-variant-caps:normal;font-variant-numeric:normal;font-variant-alternates:normal;font-variant-east-asian:normal;font-feature-settings:normal;font-variation-settings:normal;text-indent:0;text-align:start;text-decoration:none;text-decoration-line:none;text-decoration-style:solid;text-decoration-color:#000000;letter-spacing:normal;word-spacing:normal;text-transform:none;writing-mode:lr-tb;direction:ltr;text-orientation:mixed;dominant-baseline:auto;baseline-shift:baseline;text-anchor:start;white-space:normal;shape-padding:0;shape-margin:0;inline-size:0;clip-rule:nonzero;display:inline;overflow:visible;visibility:visible;isolation:auto;mix-blend-mode:normal;color-interpolation:sRGB;color-interpolation-filters:linearRGB;solid-color:#000000;solid-opacity:1;vector-effect:none;fill:#333333;fill-opacity:1;fill-rule:nonzero;stroke:none;stroke-width:0.529167;stroke-linecap:round;stroke-linejoin:round;stroke-miterlimit:4;stroke-dasharray:none;stroke-dashoffset:0;stroke-opacity:1;color-rendering:auto;image-rendering:auto;shape-rendering:auto;text-rendering:auto;enable-background:accumulate;stop-color:#000000"
           id="path1644" />
        <path
           id="path551"
           d="m 34.470703,283.24219 c -0.435237,0 -0.792966,0.35773 -0.792969,0.79297 v 0.90039 c 3e-6,0.43524 0.357732,0.79297 0.792969,0.79297 h 8.996094 c 0.435237,0 0.794919,-0.35773 0.794922,-0.79297 v -0.90039 c -3e-6,-0.43524 -0.359685,-0.79297 -0.794922,-0.79297 z"
           style="color:#000000;font-style:normal;font-variant:normal;font-weight:normal;font-stretch:normal;font-size:medium;line-height:normal;font-family:sans-serif;font-variant-ligatures:normal;font-variant-position:normal;font-variant-caps:normal;font-variant-numeric:normal;font-variant-alternates:normal;font-variant-east-asian:normal;font-feature-settings:normal;font-variation-settings:normal;text-indent:0;text-align:start;text-decoration:none;text-decoration-line:none;text-decoration-style:solid;text-decoration-color:#000000;letter-spacing:normal;word-spacing:normal;text-transform:none;writing-mode:lr-tb;direction:ltr;text-orientation:mixed;dominant-baseline:auto;baseline-shift:baseline;text-anchor:start;white-space:normal;shape-padding:0;shape-margin:0;inline-size:0;clip-rule:nonzero;display:inline;overflow:visible;visibility:visible;isolation:auto;mix-blend-mode:normal;color-interpolation:sRGB;color-interpolation-filters:linearRGB;solid-color:#000000;solid-opacity:1;vector-effect:none;fill:#143441;fill-opacity:1;fill-rule:nonzero;stroke:none;stroke-width:0.529167;stroke-linecap:round;stroke-linejoin:round;stroke-miterlimit:4;stroke-dasharray:none;stroke-dashoffset:0;stroke-opacity:1;color-rendering:auto;image-rendering:auto;shape-rendering:auto;text-rendering:auto;enable-background:accumulate;stop-color:#000000" />
        <path
           id="path711"
           d="m 38.96875,291.02734 c -0.392188,0 -0.782838,0.0992 -1.171875,0.29688 -0.303624,0.15432 -0.527842,0.43248 -0.679687,0.74219 -0.151846,0.3097 -0.233383,0.65457 -0.191407,0.98242 0.102665,0.80186 0.440958,1.41558 0.833985,1.82812 0.393027,0.41255 0.820042,0.64258 1.208984,0.64258 0.388943,0 0.815956,-0.23002 1.208984,-0.64258 0.393029,-0.41255 0.733276,-1.02625 0.835938,-1.82812 0.04197,-0.32783 -0.03957,-0.67273 -0.191406,-0.98242 -0.151835,-0.3097 -0.376081,-0.58787 -0.679688,-0.74219 -0.389037,-0.19774 -0.78164,-0.29687 -1.173828,-0.29688 z"
           style="color:#000000;font-style:normal;font-variant:normal;font-weight:normal;font-stretch:normal;font-size:medium;line-height:normal;font-family:sans-serif;font-variant-ligatures:normal;font-variant-position:normal;font-variant-caps:normal;font-variant-numeric:normal;font-variant-alternates:normal;font-variant-east-asian:normal;font-feature-settings:normal;font-variation-settings:normal;text-indent:0;text-align:start;text-decoration:none;text-decoration-line:none;text-decoration-style:solid;text-decoration-color:#000000;letter-spacing:normal;word-spacing:normal;text-transform:none;writing-mode:lr-tb;direction:ltr;text-orientation:mixed;dominant-baseline:auto;baseline-shift:baseline;text-anchor:start;white-space:normal;shape-padding:0;shape-margin:0;inline-size:0;clip-rule:nonzero;display:inline;overflow:visible;visibility:visible;isolation:auto;mix-blend-mode:normal;color-interpolation:sRGB;color-interpolation-filters:linearRGB;solid-color:#000000;solid-opacity:1;vector-effect:none;fill:#f01c19;fill-opacity:1;fill-rule:nonzero;stroke:none;stroke-width:0.529167;stroke-linecap:round;stroke-linejoin:round;stroke-miterlimit:4;stroke-dasharray:none;stroke-dashoffset:0;stroke-opacity:1;color-rendering:auto;image-rendering:auto;shape-rendering:auto;text-rendering:auto;enable-background:accumulate;stop-color:#000000" />
        <path
           sodipodi:nodetypes="scscccscccscccssss"
           id="path1911"
           style="color:#000000;font-style:normal;font-variant:normal;font-weight:normal;font-stretch:normal;font-size:medium;line-height:normal;font-family:sans-serif;font-variant-ligatures:normal;font-variant-position:normal;font-variant-caps:normal;font-variant-numeric:normal;font-variant-alternates:normal;font-variant-east-asian:normal;font-feature-settings:normal;font-variation-settings:normal;text-indent:0;text-align:start;text-decoration:none;text-decoration-line:none;text-decoration-style:solid;text-decoration-color:#000000;letter-spacing:normal;word-spacing:normal;text-transform:none;writing-mode:lr-tb;direction:ltr;text-orientation:mixed;dominant-baseline:auto;baseline-shift:baseline;text-anchor:start;white-space:normal;shape-padding:0;shape-margin:0;inline-size:0;clip-rule:nonzero;display:inline;overflow:visible;visibility:visible;isolation:auto;mix-blend-mode:normal;color-interpolation:sRGB;color-interpolation-filters:linearRGB;solid-color:#000000;solid-opacity:1;vector-effect:none;fill:#cc1c19;fill-opacity:1;fill-rule:nonzero;stroke:none;stroke-width:0.529167;stroke-linecap:round;stroke-linejoin:round;stroke-miterlimit:4;stroke-dasharray:none;stroke-dashoffset:0;stroke-opacity:1;color-rendering:auto;image-rendering:auto;shape-rendering:auto;text-rendering:auto;enable-background:accumulate;stop-color:#000000"
           d="m 38.968681,291.02723 c -0.392186,0 -0.782984,0.0995 -1.172019,0.29714 -0.303626,0.15432 -0.527701,0.43236 -0.679546,0.74207 -0.151847,0.3097 -0.233179,0.65452 -0.191203,0.98237 0.01695,0.11544 0.04146,0.23532 0.06253,0.34572 0.140468,0.20195 0.343911,0.35759 0.534334,0.42995 0.211545,0.0804 0.391245,0.0837 0.513665,0.0837 0.122484,0 0.302149,-0.004 0.513662,-0.0837 0.151752,-0.0577 0.287325,-0.21163 0.418063,-0.35554 0.130752,0.14394 0.266287,0.29787 0.418063,0.35554 0.211548,0.0804 0.391242,0.0837 0.513662,0.0837 0.122486,0 0.302154,-0.004 0.513665,-0.0837 0.192511,-0.0732 0.398452,-0.23139 0.538985,-0.43667 0.02463,-0.116 0.04206,-0.22735 0.06098,-0.339 0.04197,-0.32783 -0.03937,-0.67268 -0.191204,-0.98237 -0.151834,-0.3097 -0.375939,-0.58775 -0.679545,-0.74207 -0.389036,-0.19774 -0.7819,-0.29713 -1.174089,-0.29714 z" />
        <path
           d="m 40.729298,291.90262 c 0.07195,-0.16736 0.110585,-0.35896 0.110588,-0.56276 -3e-6,-0.27045 -0.06668,-0.51957 -0.191204,-0.71882 -0.175077,-0.27828 -0.436872,-0.39348 -0.773597,-0.32711 -0.03516,-0.21752 -0.104843,-0.41786 -0.209288,-0.58498 -0.152826,-0.24452 -0.398433,-0.4377 -0.697116,-0.4377 v 2e-5 c -0.29868,0 -0.542221,0.19318 -0.695047,0.4377 -0.104627,0.16741 -0.174197,0.36804 -0.209291,0.58601 -0.308954,-0.11127 -0.603583,0.11792 -0.775144,0.32607 -0.124529,0.19925 -0.189654,0.44837 -0.189654,0.71882 3e-6,0.20459 0.03749,0.39701 0.109554,0.56483 -0.07673,0.1133 -0.125453,0.23985 -0.173633,0.35656 -0.0298,0.12889 0.04016,0.25997 0.163814,0.30696 0.179366,0.0778 0.235087,0.25071 0.330213,0.41393 0.127458,0.21718 0.332777,0.24443 0.507463,0.24443 0.174686,0 0.380519,-0.0273 0.507979,-0.24443 l 0.187584,-0.31833 c 0.05344,-0.10492 0.427697,-0.0978 0.47439,0 l 0.185521,0.31833 c 0.127455,0.21718 0.33329,0.24443 0.507979,0.24443 0.174685,0 0.380518,-0.0273 0.507978,-0.24443 l 0.187069,-0.31833 c 0.194611,-0.098 0.261318,-0.23917 0.301879,-0.40339 z"
           style="color:#000000;font-style:normal;font-variant:normal;font-weight:normal;font-stretch:normal;font-size:medium;line-height:normal;font-family:sans-serif;font-variant-ligatures:normal;font-variant-position:normal;font-variant-caps:normal;font-variant-numeric:normal;font-variant-alternates:normal;font-variant-east-asian:normal;font-feature-settings:normal;font-variation-settings:normal;text-indent:0;text-align:start;text-decoration:none;text-decoration-line:none;text-decoration-style:solid;text-decoration-color:#000000;letter-spacing:normal;word-spacing:normal;text-transform:none;writing-mode:lr-tb;direction:ltr;text-orientation:mixed;dominant-baseline:auto;baseline-shift:baseline;text-anchor:start;white-space:normal;shape-padding:0;shape-margin:0;inline-size:0;clip-rule:nonzero;display:inline;overflow:visible;visibility:visible;isolation:auto;mix-blend-mode:normal;color-interpolation:sRGB;color-interpolation-filters:linearRGB;solid-color:#000000;solid-opacity:1;vector-effect:none;fill:#26783f;fill-opacity:1;fill-rule:nonzero;stroke:none;stroke-width:0.529167;stroke-linecap:round;stroke-linejoin:round;stroke-miterlimit:4;stroke-dasharray:none;stroke-dashoffset:0;stroke-opacity:1;color-rendering:auto;image-rendering:auto;shape-rendering:auto;text-rendering:auto;enable-background:accumulate;stop-color:#000000"
           id="path772"
           sodipodi:nodetypes="csccssssccsccccsccccscccc" />
        <path
           d="m 34.470765,283.24218 c -0.435237,0 -0.79323,0.35799 -0.793233,0.79323 v 0.2651 h 8.730733 c 0.435237,0 0.795298,0.35799 0.7953,0.79323 v 0.63459 h 0.263033 c 0.435237,0 0.795298,-0.35748 0.795301,-0.79272 v -0.9002 c -3e-6,-0.43524 -0.360064,-0.79323 -0.795301,-0.79323 z"
           style="color:#000000;font-style:normal;font-variant:normal;font-weight:normal;font-stretch:normal;font-size:medium;line-height:normal;font-family:sans-serif;font-variant-ligatures:normal;font-variant-position:normal;font-variant-caps:normal;font-variant-numeric:normal;font-variant-alternates:normal;font-variant-east-asian:normal;font-feature-settings:normal;font-variation-settings:normal;text-indent:0;text-align:start;text-decoration:none;text-decoration-line:none;text-decoration-style:solid;text-decoration-color:#000000;letter-spacing:normal;word-spacing:normal;text-transform:none;writing-mode:lr-tb;direction:ltr;text-orientation:mixed;dominant-baseline:auto;baseline-shift:baseline;text-anchor:start;white-space:normal;shape-padding:0;shape-margin:0;inline-size:0;clip-rule:nonzero;display:inline;overflow:visible;visibility:visible;isolation:auto;mix-blend-mode:normal;color-interpolation:sRGB;color-interpolation-filters:linearRGB;solid-color:#000000;solid-opacity:1;vector-effect:none;fill:#112d38;fill-opacity:1;fill-rule:nonzero;stroke:none;stroke-width:0.529167;stroke-linecap:round;stroke-linejoin:round;stroke-miterlimit:4;stroke-dasharray:none;stroke-dashoffset:0;stroke-opacity:1;color-rendering:auto;image-rendering:auto;shape-rendering:auto;text-rendering:auto;enable-background:accumulate;stop-color:#000000"
           id="path786" />
        <path
           id="path1906"
           style="fill:#1f6636;fill-opacity:1;stroke:none;stroke-width:0.264583px;stroke-linecap:butt;stroke-linejoin:miter;stroke-opacity:1"
           d="m 40.729298,291.90263 c 0.07195,-0.16736 0.110585,-0.35896 0.110588,-0.56276 0.01299,-0.59981 -0.387398,-1.23147 -0.964801,-1.04593 -0.06051,-0.45991 -0.37996,-1.01135 -0.906404,-1.02267 -0.416737,0.0105 -0.668602,0.31939 -0.804085,0.65939 1.381525,0.35871 1.385528,1.98909 1.280541,3.12591 0.127061,0.14912 0.303012,0.17001 0.455272,0.17001 0.174685,0 0.380518,-0.0273 0.507978,-0.24443 l 0.187069,-0.31833 c 0.196434,-0.0833 0.264231,-0.23907 0.309025,-0.401 -0.03891,-0.12612 -0.109738,-0.25958 -0.175183,-0.36019 z"
           sodipodi:nodetypes="ccccccscccc" />
        <path
           id="path1152"
           style="color:#000000;font-style:normal;font-variant:normal;font-weight:normal;font-stretch:normal;font-size:medium;line-height:normal;font-family:sans-serif;font-variant-ligatures:normal;font-variant-position:normal;font-variant-caps:normal;font-variant-numeric:normal;font-variant-alternates:normal;font-variant-east-asian:normal;font-feature-settings:normal;font-variation-settings:normal;text-indent:0;text-align:start;text-decoration:none;text-decoration-line:none;text-decoration-style:solid;text-decoration-color:#000000;letter-spacing:normal;word-spacing:normal;text-transform:none;writing-mode:lr-tb;direction:ltr;text-orientation:mixed;dominant-baseline:auto;baseline-shift:baseline;text-anchor:start;white-space:normal;shape-padding:0;shape-margin:0;inline-size:0;clip-rule:nonzero;display:inline;overflow:visible;visibility:visible;opacity:1;isolation:auto;mix-blend-mode:normal;color-interpolation:sRGB;color-interpolation-filters:linearRGB;solid-color:#000000;solid-opacity:1;vector-effect:none;fill:#000000;fill-opacity:1;fill-rule:nonzero;stroke:none;stroke-width:0.529167;stroke-linecap:round;stroke-linejoin:round;stroke-miterlimit:4;stroke-dasharray:none;stroke-dashoffset:0;stroke-opacity:1;color-rendering:auto;image-rendering:auto;shape-rendering:auto;text-rendering:auto;enable-background:accumulate;stop-color:#000000;stop-opacity:1"
           d="m 40.100914,283.24217 h -5.630149 c -0.435237,0 -0.793228,0.35799 -0.793231,0.79323 v 0.9002 c 0,0.64069 0.427487,0.78153 0.820621,0.79272 0,1.03989 0.0774,1.50458 -0.25786,2.04122 -1.632416,2.93462 -1.46331,6.04688 0.02635,8.43773 H 33.14837 c -0.14532,5.5e-4 -0.262985,0.11823 -0.263551,0.26355 -5.3e-4,0.14613 0.117424,0.26505 0.263551,0.26562 h 11.642699 c 0.146127,-5.9e-4 0.264123,-0.11949 0.263551,-0.26562 -5.29e-4,-0.14532 -0.118231,-0.26299 -0.263551,-0.26355 h -1.118277 c 1.489665,-2.39085 1.65877,-5.50311 0.02635,-8.43773 -0.329689,-0.6224 -0.332364,-1.38262 -0.259411,-2.04122 0.608513,0 0.810514,-0.41646 0.822172,-0.79272 v -0.9002 c -3e-6,-0.43524 -0.360064,-0.79323 -0.795301,-0.79323 h -1.667079 c 0.20234,-0.755 0.394716,-1.47227 0.594796,-2.21899 l 0.72502,0.22686 c 0.135006,0.0429 0.286181,0.0475 0.366903,-0.0744 0.08095,-0.12172 0.04786,-0.28602 -0.0739,-0.36691 -0.973006,-0.51598 -2.388431,-0.81181 -2.842202,0.6873 z m 0.982884,-1.61902 c 0.140679,-0.57718 0.422617,-0.6789 0.80512,-0.7059 -0.214892,0.80201 -0.417558,1.50908 -0.636135,2.32492 h -0.603065 z m -6.613033,2.14818 h 8.995834 c 0.149257,0 0.265618,0.11481 0.265618,0.26407 v 0.9002 c 0,0.14926 -0.116361,0.26355 -0.265618,0.26355 h -8.995834 c -0.149256,0 -0.263548,-0.11429 -0.263548,-0.26355 v -0.9002 c 0,-0.14926 0.114292,-0.26407 0.263548,-0.26407 z m 0.529167,0.44959 c -0.146124,5.8e-4 -0.26412,0.11949 -0.263549,0.26562 5.29e-4,0.14531 0.118229,0.26298 0.263549,0.26355 h 7.937501 c 0.146126,5.8e-4 0.265049,-0.11743 0.265617,-0.26355 5.3e-4,-0.14694 -0.118684,-0.2662 -0.265617,-0.26562 z m 0.0217,1.5074 H 39.4348 l -0.471805,1.76113 c -0.410255,0.26893 -0.956254,0.2245 -1.302763,0.005 -0.284451,-0.18964 -0.611444,-0.28526 -0.939477,-0.28526 -0.328033,0 -0.657093,0.0956 -0.941544,0.28526 -0.267626,0.17843 -0.587843,0.22975 -0.889871,0.16484 0.151046,-0.43509 0.176872,-1.36882 0.132292,-1.93063 z m 4.961972,0 h 0.603065 l -0.405143,1.50792 c -0.200308,-0.0342 -0.404344,-0.0309 -0.604099,0.007 z m 1.1498,0 h 1.782837 c -0.05069,0.38591 -0.112578,0.93561 -5.29e-4,1.48932 -0.275067,0.0253 -0.545458,0.11679 -0.784964,0.27646 -0.393366,0.23703 -0.785884,0.31837 -1.447459,-0.0858 z m -1.734278,2.11977 c 0.366102,-0.17222 0.799918,-0.14385 1.143598,0.0853 0.568905,0.37928 1.312119,0.37928 1.881024,0 0.223941,-0.12324 0.419576,-0.18225 0.647007,-0.21342 0.04739,0.1076 0.102399,0.21393 0.170016,0.31678 0.501861,0.90449 0.822163,1.81928 0.978752,2.71921 h -3.500562 c -0.198216,-0.37242 -0.47651,-0.53491 -0.843886,-0.46147 -0.03512,-0.21777 -0.104744,-0.41821 -0.209288,-0.58549 -0.152826,-0.24452 -0.398434,-0.4377 -0.697117,-0.4377 -0.29868,0 -0.542221,0.19318 -0.695047,0.4377 -0.104627,0.16741 -0.174196,0.36804 -0.209291,0.58601 -0.293549,-0.13246 -0.715123,0.0771 -0.845436,0.46095 h -3.499011 c 0.150481,-0.86484 0.455226,-1.74329 0.923975,-2.61328 0.689988,0.15847 1.073859,0.0199 1.430404,-0.20929 0.392408,-0.2616 0.900535,-0.2616 1.292944,0 0.552956,0.36865 1.269233,0.37589 1.831412,0.0279 z m -3.039073,0.48834 c -0.166803,7.4e-4 -0.301439,0.13654 -0.300757,0.30334 7.94e-4,0.1658 0.134962,0.30002 0.300757,0.30076 0.166804,6.9e-4 0.302597,-0.13396 0.30334,-0.30076 7.94e-4,-0.16781 -0.135525,-0.30403 -0.30334,-0.30334 z m 3.667477,0.0388 c -0.167007,1.7e-4 -0.302188,0.13582 -0.301791,0.30282 5.29e-4,0.16701 0.136337,0.30196 0.303342,0.30128 0.166198,-4.5e-4 0.300815,-0.13508 0.301273,-0.30128 2.65e-4,-0.1668 -0.134469,-0.30236 -0.301273,-0.30282 -5.29e-4,0 -0.0011,0 -0.0016,0 z m 2.343526,0.22582 c -0.167209,1.8e-4 -0.302474,0.13614 -0.301792,0.30334 7.94e-4,0.16681 0.136539,0.30145 0.303343,0.30076 0.165997,-4.5e-4 0.300532,-0.13476 0.301273,-0.30076 7.93e-4,-0.167 -0.134268,-0.30288 -0.301273,-0.30334 -5.3e-4,0 -0.0011,0 -0.0016,0 z m -5.253426,0.83354 c 0.02207,0.18855 0.138289,0.29322 0.300754,0.30076 0.166804,6.9e-4 0.302596,-0.13395 0.30334,-0.30075 7.93e-4,-0.16782 -0.135525,-0.30403 -0.302834,-0.30332 -0.167307,7.2e-4 -0.301943,0.13651 -0.30126,0.30331 z m 5.782593,0.2248 c -0.167209,1.7e-4 -0.302474,0.13613 -0.301792,0.30334 7.94e-4,0.1668 0.136538,0.30144 0.303342,0.30075 0.165997,-4.5e-4 0.300533,-0.13476 0.301273,-0.30075 7.94e-4,-0.16701 -0.134268,-0.30288 -0.301273,-0.30334 -5.29e-4,0 -0.0011,0 -0.0016,0 z m -7.598503,0.001 c -0.166804,7.4e-4 -0.30144,0.13653 -0.300757,0.30334 7.94e-4,0.1658 0.134961,0.30002 0.300757,0.30076 0.166804,6.8e-4 0.302596,-0.13396 0.30334,-0.30076 7.93e-4,-0.16781 -0.135525,-0.30403 -0.30334,-0.30334 z m 5.746935,0.30334 c 7.94e-4,0.1668 0.136539,0.30144 0.303343,0.30076 0.165996,-4.5e-4 0.300532,-0.13476 0.301273,-0.30076 7.93e-4,-0.16701 -0.134268,-0.30288 -0.302152,-0.30302 -0.167881,-1.5e-4 -0.303146,0.13581 -0.302464,0.30302 z m -2.079977,-0.16278 c 0.06989,0 0.159335,0.0472 0.248047,0.18913 0.08871,0.14194 0.156062,0.3653 0.156065,0.61547 -3e-6,0.16723 -0.03101,0.31988 -0.07751,0.44649 -0.223861,-0.0391 -0.443704,-0.0197 -0.65164,0 -0.04622,-0.12676 -0.077,-0.27935 -0.077,-0.44649 3e-6,-0.25017 0.06735,-0.47353 0.156065,-0.61547 0.08871,-0.14194 0.176085,-0.18913 0.245977,-0.18913 z m -1.002006,1.04696 c 0.08911,0.10547 0.121148,0.2168 0.163298,0.33383 -0.190627,0.0619 -0.341217,0.14773 -0.495059,0.24702 -0.02974,-0.18317 0.02212,-0.38568 0.103362,-0.52659 0.09263,-0.1446 0.196824,-0.085 0.228399,-0.0543 z m 2.234491,0.0543 c 0.102735,0.1687 0.101016,0.34767 0.103362,0.52659 -0.148079,-0.11612 -0.335229,-0.18264 -0.494543,-0.24702 0.02813,-0.12319 0.09632,-0.25533 0.15658,-0.33589 0.09279,-0.0879 0.193781,-0.0284 0.234601,0.0563 z m -3.098003,0.38293 c -0.01937,0.21598 0.05561,0.44044 0.105928,0.61908 -0.03993,0.0599 -0.06741,0.12127 -0.09767,0.1757 h -0.523481 c -0.145521,5.5e-4 -0.263268,0.11854 -0.263551,0.26407 5.29e-4,0.14532 0.118232,0.26298 0.263551,0.26355 h 0.353465 c -0.02529,0.14744 -0.03411,0.29601 -0.01551,0.44131 0.07261,0.5671 0.264165,1.03804 0.508498,1.41232 -1.140521,0.001 -2.28485,-0.002 -3.423566,0.001 -0.09088,-0.25991 -0.162848,-0.52628 -0.223758,-0.79633 h 0.656291 c 0.146124,5.8e-4 0.265047,-0.11743 0.265615,-0.26355 5.3e-4,-0.14694 -0.118681,-0.26619 -0.265615,-0.26562 h -0.754994 c -0.08927,-0.60123 -0.106759,-1.22086 -0.04134,-1.85157 z m 3.733106,0 h 3.45612 c 0.06542,0.6307 0.04792,1.25033 -0.04134,1.85156 h -0.754995 c -0.146124,5.8e-4 -0.26412,0.11949 -0.263549,0.26562 5.3e-4,0.14532 0.11823,0.26298 0.263549,0.26355 h 0.656291 c -0.06091,0.27006 -0.132879,0.53642 -0.223758,0.79633 -1.141651,-0.002 -2.283426,-10e-4 -3.425116,-10e-4 0.244904,-0.37428 0.437441,-0.84521 0.510048,-1.41232 0.0186,-0.14529 0.0098,-0.29387 -0.0155,-0.44131 h 0.355536 c 0.14532,-5.6e-4 0.262983,-0.11823 0.263549,-0.26355 -2.64e-4,-0.14552 -0.118028,-0.2635 -0.263549,-0.26407 h -0.525549 c -0.02737,-0.0633 -0.06909,-0.1251 -0.0987,-0.17725 0.08002,-0.22326 0.109347,-0.41075 0.106974,-0.61753 z m -2.849948,1.42988 -0.185518,-0.31832 c -0.0432,-0.0736 -0.09937,-0.13173 -0.161229,-0.18087 0.201197,-0.36031 0.523822,-0.48762 0.867129,-0.60771 0.318889,-0.093 0.612233,-0.0622 0.919324,-0.002 0.396878,0.0915 0.660633,0.3184 0.873847,0.60927 -0.06187,0.0491 -0.118054,0.10729 -0.161229,0.18087 l -0.185518,0.31832 c -0.03445,0.039 -0.0689,0.0266 -0.103354,0 l -0.185518,-0.31832 c -0.358897,-0.43952 -1.106172,-0.45288 -1.389062,0 l -0.185518,0.31832 c -0.04169,0.0362 -0.07241,0.0175 -0.103354,10e-6 z m -3.396692,-0.6351 c -0.145521,5.8e-4 -0.263266,0.11855 -0.263549,0.26407 5.29e-4,0.14532 0.118229,0.26298 0.263549,0.26355 h 0.91209 c 0.146124,5.8e-4 0.265046,-0.11743 0.265615,-0.26355 -2.65e-4,-0.14633 -0.11929,-0.26464 -0.265615,-0.26407 z m 7.84965,0 c -0.146328,-5.8e-4 -0.265332,0.11774 -0.265618,0.26407 5.3e-4,0.14612 0.119492,0.26412 0.265618,0.26355 h 0.912091 c 0.14552,-2.9e-4 0.263495,-0.11803 0.264064,-0.26355 -2.64e-4,-0.14572 -0.118343,-0.26378 -0.264064,-0.26407 z m -3.232361,0.58394 0.18552,0.31885 c 0.127455,0.21718 0.33329,0.24391 0.507979,0.24391 0.174686,0 0.380518,-0.0267 0.507979,-0.24391 l 0.08372,-0.14211 c 0.0024,0.0504 0.0018,0.0989 -0.0036,0.14211 -0.08839,0.69044 -0.375682,1.19549 -0.693497,1.5291 -0.317815,0.3336 -0.686083,0.47853 -0.826307,0.47853 -0.140224,0 -0.508492,-0.14493 -0.826304,-0.47853 -0.317815,-0.3336 -0.604586,-0.83867 -0.692981,-1.5291 -0.0056,-0.0438 -0.0068,-0.0929 -0.0041,-0.14418 l 0.08423,0.14418 c 0.127458,0.21718 0.332777,0.24391 0.507463,0.24391 0.174686,0 0.380518,-0.0267 0.507979,-0.24391 l 0.187584,-0.31885 c 0.09569,-0.11136 0.399621,-0.0968 0.474387,0 z m -3.677812,0.47284 c -0.146124,5.9e-4 -0.26412,0.1195 -0.263549,0.26562 5.29e-4,0.14532 0.118229,0.26298 0.263549,0.26355 h 0.529685 c 0.146124,5.8e-4 0.265047,-0.11742 0.265616,-0.26355 5.29e-4,-0.14693 -0.118682,-0.26619 -0.265616,-0.26562 z m 6.351551,0 c -0.146125,5.9e-4 -0.264121,0.1195 -0.263549,0.26562 5.29e-4,0.14532 0.118229,0.26298 0.263549,0.26355 h 0.529685 c 0.146124,5.8e-4 0.265046,-0.11742 0.265615,-0.26355 5.29e-4,-0.14693 -0.118681,-0.26619 -0.265615,-0.26562 z m -7.660514,1.85364 h 3.65559 c 0.360193,0.34005 0.741801,0.52916 1.092956,0.52916 0.351158,0 0.733283,-0.18911 1.093476,-0.52916 h 3.657139 c -0.186962,0.42492 -0.416478,0.83112 -0.682127,1.21698 h -8.134906 c -0.26565,-0.38591 -0.495165,-0.79211 -0.682128,-1.21703 z"
           sodipodi:nodetypes="csscccccsccscccccssccccccccccccssssssssscsccsccccccsscccccccccsccccsccccccssccccccccccccccccscccccsccccccccccccccccccccscssccssscccscsccccccccccccccsccccccsccccccccccccccsccscccccccccccccccccccsccscccssssccccscsccscccsccccccsccccccccccccsccccc" />
      </g>
    </g>
  </g>
</svg>
